2025/05/08 16:16:04 main.go:254: Server Start Awaiting Signal
2025/05/08 16:16:04 main.go:146: 로그 파일 압축 완료: 2025-04-28.log
2025/05/08 16:16:04 main.go:146: 로그 파일 압축 완료: 2025-04-29.log
2025/05/08 16:16:04 main.go:146: 로그 파일 압축 완료: 2025-04-30.log
2025/05/08 16:16:58 stream.go:51: Stream Try Connect TEST2
2025/05/08 16:16:58 adapter.go:61: Set ICEServers [stun:stun.l.google.com:19302]
2025/05/08 16:20:51 stream.go:54: Stream Exit Rtsp Disconnect
2025/05/08 16:20:52 stream.go:51: Stream Try Connect TEST2
2025/05/08 16:20:55 main.go:251: interrupt
2025/05/08 16:20:55 main.go:256: Exiting
2025/05/08 16:21:07 main.go:254: Server Start Awaiting Signal
2025/05/08 16:21:46 main.go:251: interrupt
2025/05/08 16:21:46 main.go:256: Exiting
2025/05/08 16:21:58 main.go:254: Server Start Awaiting Signal
2025/05/08 16:22:02 stream.go:70: Stream Try Connect TEST2
2025/05/08 16:22:02 adapter.go:61: Set ICEServers [stun:stun.l.google.com:19302]
2025/05/08 16:23:11 main.go:251: interrupt
2025/05/08 16:23:11 main.go:256: Exiting
2025/05/08 16:23:23 main.go:254: Server Start Awaiting Signal
2025/05/08 16:23:52 stream.go:73: Stream Try Connect TEST2
2025/05/08 16:23:52 adapter.go:61: Set ICEServers [stun:stun.l.google.com:19302]
2025/05/08 16:24:21 main.go:251: interrupt
2025/05/08 16:24:21 main.go:256: Exiting
2025/05/08 16:24:33 main.go:254: Server Start Awaiting Signal
2025/05/08 16:24:34 stream.go:116: Stream Try Connect TEST2
2025/05/08 16:24:34 adapter.go:61: Set ICEServers [stun:stun.l.google.com:19302]
2025/05/08 16:24:50 main.go:251: interrupt
2025/05/08 16:24:50 main.go:256: Exiting
2025/05/08 16:25:02 main.go:254: Server Start Awaiting Signal
2025/05/08 16:25:03 stream.go:73: Stream Try Connect TEST2
2025/05/08 16:25:03 adapter.go:61: Set ICEServers [stun:stun.l.google.com:19302]
2025/05/08 16:25:36 main.go:251: interrupt
2025/05/08 16:25:36 main.go:256: Exiting
2025/05/08 16:25:48 main.go:254: Server Start Awaiting Signal
2025/05/08 16:25:53 stream.go:51: Stream Try Connect TEST2
2025/05/08 16:25:53 adapter.go:61: Set ICEServers [stun:stun.l.google.com:19302]
2025/05/08 16:26:08 adapter.go:61: Set ICEServers [stun:stun.l.google.com:19302]
2025/05/08 16:26:13 http.go:553: WritePacket WebRTC Client Offline
2025/05/08 16:26:22 http.go:562: noVideo
2025/05/08 16:29:39 main.go:251: interrupt
2025/05/08 16:29:39 main.go:256: Exiting
2025/05/08 16:29:51 main.go:254: Server Start Awaiting Signal
2025/05/08 16:29:54 stream.go:88: Stream Try Connect TEST2
2025/05/08 16:29:54 adapter.go:61: Set ICEServers [stun:stun.l.google.com:19302]
2025/05/08 16:33:32 main.go:251: interrupt
2025/05/08 16:33:32 main.go:256: Exiting
2025/05/08 16:33:44 main.go:254: Server Start Awaiting Signal
2025/05/08 16:33:49 stream.go:90: Stream Try Connect TEST2
2025/05/08 16:33:49 adapter.go:61: Set ICEServers [stun:stun.l.google.com:19302]
2025/05/08 16:35:26 main.go:251: interrupt
2025/05/08 16:35:26 main.go:256: Exiting
2025/05/08 16:35:38 main.go:254: Server Start Awaiting Signal
2025/05/08 16:35:39 stream.go:122: Stream Try Connect TEST2
2025/05/08 16:35:39 adapter.go:61: Set ICEServers [stun:stun.l.google.com:19302]
2025/05/08 16:35:49 http.go:565: noVideo
2025/05/08 16:35:59 stream.go:125: Stream Exit On Demand No Viewer
2025/05/08 16:35:59 stream.go:141: Stream Exit On Demand No Viewer
2025/05/08 16:36:01 stream.go:122: Stream Try Connect TEST2
2025/05/08 16:36:01 adapter.go:61: Set ICEServers [stun:stun.l.google.com:19302]
2025/05/08 16:37:07 main.go:251: interrupt
2025/05/08 16:37:07 main.go:256: Exiting
2025/05/08 16:37:19 main.go:254: Server Start Awaiting Signal
2025/05/08 16:37:20 stream.go:162: Stream Try Connect TEST2
2025/05/08 16:37:20 adapter.go:61: Set ICEServers [stun:stun.l.google.com:19302]
2025/05/08 16:37:27 stream.go:165: Stream Exit Rtsp Disconnect
2025/05/08 16:37:28 stream.go:162: Stream Try Connect TEST2
2025/05/08 16:38:37 main.go:251: interrupt
2025/05/08 16:38:37 main.go:256: Exiting
2025/05/08 16:38:49 main.go:254: Server Start Awaiting Signal
2025/05/08 16:38:53 stream.go:186: Stream Try Connect TEST2
2025/05/08 16:38:53 adapter.go:61: Set ICEServers [stun:stun.l.google.com:19302]
2025/05/08 16:38:53 stream.go:128: 스냅샷 업데이트 시작: UUID=TEST2, 패킷 크기=57531 바이트
2025/05/08 16:38:53 stream.go:135: 새 스냅샷 생성: UUID=TEST2
2025/05/08 16:38:53 stream.go:151: 스냅샷 업데이트 완료: UUID=TEST2
2025/05/08 16:38:54 stream.go:128: 스냅샷 업데이트 시작: UUID=TEST2, 패킷 크기=57672 바이트
2025/05/08 16:38:54 stream.go:151: 스냅샷 업데이트 완료: UUID=TEST2
2025/05/08 16:38:55 stream.go:128: 스냅샷 업데이트 시작: UUID=TEST2, 패킷 크기=64329 바이트
2025/05/08 16:38:55 stream.go:151: 스냅샷 업데이트 완료: UUID=TEST2
2025/05/08 16:38:56 stream.go:128: 스냅샷 업데이트 시작: UUID=TEST2, 패킷 크기=58703 바이트
2025/05/08 16:38:56 stream.go:151: 스냅샷 업데이트 완료: UUID=TEST2
2025/05/08 16:38:57 stream.go:128: 스냅샷 업데이트 시작: UUID=TEST2, 패킷 크기=52939 바이트
2025/05/08 16:38:57 stream.go:151: 스냅샷 업데이트 완료: UUID=TEST2
2025/05/08 16:38:58 stream.go:88: 스냅샷 요청: UUID=TEST2
2025/05/08 16:38:58 stream.go:110: 스냅샷 변환 시작: UUID=TEST2, 데이터 크기=52939 바이트
2025/05/08 16:38:58 stream.go:37: 스냅샷 캡처 시작: 패킷 크기=52939 바이트
2025/05/08 16:38:58 stream.go:78: 스냅샷 캡처 실패 (ffmpeg wait): exit status 234, stderr: ffmpeg version 7.1.1 Copyright (c) 2000-2025 the FFmpeg developers
  built with Apple clang version 16.0.0 (clang-1600.0.26.6)
  configuration: --prefix=/opt/homebrew/Cellar/ffmpeg/7.1.1_2 --enable-shared --enable-pthreads --enable-version3 --cc=clang --host-cflags= --host-ldflags='-Wl,-ld_classic' --enable-ffplay --enable-gnutls --enable-gpl --enable-libaom --enable-libaribb24 --enable-libbluray --enable-libdav1d --enable-libharfbuzz --enable-libjxl --enable-libmp3lame --enable-libopus --enable-librav1e --enable-librist --enable-librubberband --enable-libsnappy --enable-libsrt --enable-libssh --enable-libsvtav1 --enable-libtesseract --enable-libtheora --enable-libvidstab --enable-libvmaf --enable-libvorbis --enable-libvpx --enable-libwebp --enable-libx264 --enable-libx265 --enable-libxml2 --enable-libxvid --enable-lzma --enable-libfontconfig --enable-libfreetype --enable-frei0r --enable-libass --enable-libopencore-amrnb --enable-libopencore-amrwb --enable-libopenjpeg --enable-libspeex --enable-libsoxr --enable-libzmq --enable-libzimg --disable-libjack --disable-indev=jack --enable-videotoolbox --enable-audiotoolbox --enable-neon
  libavutil      59. 39.100 / 59. 39.100
  libavcodec     61. 19.101 / 61. 19.101
  libavformat    61.  7.100 / 61.  7.100
  libavdevice    61.  3.100 / 61.  3.100
  libavfilter    10.  4.100 / 10.  4.100
  libswscale      8.  3.100 /  8.  3.100
  libswresample   5.  3.100 /  5.  3.100
  libpostproc    58.  3.100 / 58.  3.100
[h264 @ 0x1579067a0] missing picture in access unit with size 52939
[extract_extradata @ 0x156f04210] No start code is found.
[in#0/h264 @ 0x1579059e0] could not find codec parameters
Input #0, h264, from 'pipe:0':
  Duration: N/A, bitrate: N/A
  Stream #0:0: Video: h264, none, 25 fps, 1200k tbn
[AVFormatContext @ 0x156f043a0] Requested output format 'jpeg' is not known.
[out#0 @ 0x156f042e0] Error initializing the muxer for pipe:1: Invalid argument
Error opening output file pipe:1.
Error opening output files: Invalid argument
2025/05/08 16:38:58 stream.go:113: 스냅샷 변환 실패: UUID=TEST2, 에러=ffmpeg wait error: exit status 234, stderr: ffmpeg version 7.1.1 Copyright (c) 2000-2025 the FFmpeg developers
  built with Apple clang version 16.0.0 (clang-1600.0.26.6)
  configuration: --prefix=/opt/homebrew/Cellar/ffmpeg/7.1.1_2 --enable-shared --enable-pthreads --enable-version3 --cc=clang --host-cflags= --host-ldflags='-Wl,-ld_classic' --enable-ffplay --enable-gnutls --enable-gpl --enable-libaom --enable-libaribb24 --enable-libbluray --enable-libdav1d --enable-libharfbuzz --enable-libjxl --enable-libmp3lame --enable-libopus --enable-librav1e --enable-librist --enable-librubberband --enable-libsnappy --enable-libsrt --enable-libssh --enable-libsvtav1 --enable-libtesseract --enable-libtheora --enable-libvidstab --enable-libvmaf --enable-libvorbis --enable-libvpx --enable-libwebp --enable-libx264 --enable-libx265 --enable-libxml2 --enable-libxvid --enable-lzma --enable-libfontconfig --enable-libfreetype --enable-frei0r --enable-libass --enable-libopencore-amrnb --enable-libopencore-amrwb --enable-libopenjpeg --enable-libspeex --enable-libsoxr --enable-libzmq --enable-libzimg --disable-libjack --disable-indev=jack --enable-videotoolbox --enable-audiotoolbox --enable-neon
  libavutil      59. 39.100 / 59. 39.100
  libavcodec     61. 19.101 / 61. 19.101
  libavformat    61.  7.100 / 61.  7.100
  libavdevice    61.  3.100 / 61.  3.100
  libavfilter    10.  4.100 / 10.  4.100
  libswscale      8.  3.100 /  8.  3.100
  libswresample   5.  3.100 /  5.  3.100
  libpostproc    58.  3.100 / 58.  3.100
[h264 @ 0x1579067a0] missing picture in access unit with size 52939
[extract_extradata @ 0x156f04210] No start code is found.
[in#0/h264 @ 0x1579059e0] could not find codec parameters
Input #0, h264, from 'pipe:0':
  Duration: N/A, bitrate: N/A
  Stream #0:0: Video: h264, none, 25 fps, 1200k tbn
[AVFormatContext @ 0x156f043a0] Requested output format 'jpeg' is not known.
[out#0 @ 0x156f042e0] Error initializing the muxer for pipe:1: Invalid argument
Error opening output file pipe:1.
Error opening output files: Invalid argument
2025/05/08 16:38:58 stream.go:128: 스냅샷 업데이트 시작: UUID=TEST2, 패킷 크기=52569 바이트
2025/05/08 16:38:58 stream.go:151: 스냅샷 업데이트 완료: UUID=TEST2
2025/05/08 16:38:59 stream.go:128: 스냅샷 업데이트 시작: UUID=TEST2, 패킷 크기=51916 바이트
2025/05/08 16:38:59 stream.go:151: 스냅샷 업데이트 완료: UUID=TEST2
2025/05/08 16:39:00 stream.go:128: 스냅샷 업데이트 시작: UUID=TEST2, 패킷 크기=52357 바이트
2025/05/08 16:39:00 stream.go:151: 스냅샷 업데이트 완료: UUID=TEST2
2025/05/08 16:39:01 stream.go:128: 스냅샷 업데이트 시작: UUID=TEST2, 패킷 크기=52129 바이트
2025/05/08 16:39:01 stream.go:151: 스냅샷 업데이트 완료: UUID=TEST2
2025/05/08 16:39:02 stream.go:128: 스냅샷 업데이트 시작: UUID=TEST2, 패킷 크기=57550 바이트
2025/05/08 16:39:02 stream.go:151: 스냅샷 업데이트 완료: UUID=TEST2
2025/05/08 16:39:03 stream.go:128: 스냅샷 업데이트 시작: UUID=TEST2, 패킷 크기=57815 바이트
2025/05/08 16:39:03 stream.go:151: 스냅샷 업데이트 완료: UUID=TEST2
2025/05/08 16:39:04 stream.go:128: 스냅샷 업데이트 시작: UUID=TEST2, 패킷 크기=57612 바이트
2025/05/08 16:39:04 stream.go:151: 스냅샷 업데이트 완료: UUID=TEST2
2025/05/08 16:39:05 stream.go:128: 스냅샷 업데이트 시작: UUID=TEST2, 패킷 크기=57990 바이트
2025/05/08 16:39:05 stream.go:151: 스냅샷 업데이트 완료: UUID=TEST2
2025/05/08 16:39:06 stream.go:128: 스냅샷 업데이트 시작: UUID=TEST2, 패킷 크기=52087 바이트
2025/05/08 16:39:06 stream.go:151: 스냅샷 업데이트 완료: UUID=TEST2
2025/05/08 16:39:07 stream.go:128: 스냅샷 업데이트 시작: UUID=TEST2, 패킷 크기=56764 바이트
2025/05/08 16:39:07 stream.go:151: 스냅샷 업데이트 완료: UUID=TEST2
2025/05/08 16:39:08 stream.go:128: 스냅샷 업데이트 시작: UUID=TEST2, 패킷 크기=57838 바이트
2025/05/08 16:39:08 stream.go:151: 스냅샷 업데이트 완료: UUID=TEST2
2025/05/08 16:39:09 stream.go:128: 스냅샷 업데이트 시작: UUID=TEST2, 패킷 크기=57452 바이트
2025/05/08 16:39:09 stream.go:151: 스냅샷 업데이트 완료: UUID=TEST2
2025/05/08 16:39:10 stream.go:128: 스냅샷 업데이트 시작: UUID=TEST2, 패킷 크기=57527 바이트
2025/05/08 16:39:10 stream.go:151: 스냅샷 업데이트 완료: UUID=TEST2
2025/05/08 16:39:11 stream.go:128: 스냅샷 업데이트 시작: UUID=TEST2, 패킷 크기=57919 바이트
2025/05/08 16:39:11 stream.go:151: 스냅샷 업데이트 완료: UUID=TEST2
2025/05/08 16:39:12 stream.go:128: 스냅샷 업데이트 시작: UUID=TEST2, 패킷 크기=57771 바이트
2025/05/08 16:39:12 stream.go:151: 스냅샷 업데이트 완료: UUID=TEST2
2025/05/08 16:39:13 stream.go:128: 스냅샷 업데이트 시작: UUID=TEST2, 패킷 크기=57317 바이트
2025/05/08 16:39:13 stream.go:151: 스냅샷 업데이트 완료: UUID=TEST2
2025/05/08 16:39:14 stream.go:128: 스냅샷 업데이트 시작: UUID=TEST2, 패킷 크기=57587 바이트
2025/05/08 16:39:14 stream.go:151: 스냅샷 업데이트 완료: UUID=TEST2
2025/05/08 16:39:15 stream.go:128: 스냅샷 업데이트 시작: UUID=TEST2, 패킷 크기=58080 바이트
2025/05/08 16:39:15 stream.go:151: 스냅샷 업데이트 완료: UUID=TEST2
2025/05/08 16:39:16 stream.go:128: 스냅샷 업데이트 시작: UUID=TEST2, 패킷 크기=51950 바이트
2025/05/08 16:39:16 stream.go:151: 스냅샷 업데이트 완료: UUID=TEST2
2025/05/08 16:39:17 stream.go:128: 스냅샷 업데이트 시작: UUID=TEST2, 패킷 크기=57411 바이트
2025/05/08 16:39:17 stream.go:151: 스냅샷 업데이트 완료: UUID=TEST2
2025/05/08 16:39:18 stream.go:128: 스냅샷 업데이트 시작: UUID=TEST2, 패킷 크기=58149 바이트
2025/05/08 16:39:18 stream.go:151: 스냅샷 업데이트 완료: UUID=TEST2
2025/05/08 16:39:19 stream.go:128: 스냅샷 업데이트 시작: UUID=TEST2, 패킷 크기=58202 바이트
2025/05/08 16:39:19 stream.go:151: 스냅샷 업데이트 완료: UUID=TEST2
2025/05/08 16:39:20 stream.go:128: 스냅샷 업데이트 시작: UUID=TEST2, 패킷 크기=52865 바이트
2025/05/08 16:39:20 stream.go:151: 스냅샷 업데이트 완료: UUID=TEST2
2025/05/08 16:39:21 stream.go:128: 스냅샷 업데이트 시작: UUID=TEST2, 패킷 크기=52393 바이트
2025/05/08 16:39:21 stream.go:151: 스냅샷 업데이트 완료: UUID=TEST2
2025/05/08 16:39:22 stream.go:128: 스냅샷 업데이트 시작: UUID=TEST2, 패킷 크기=52559 바이트
2025/05/08 16:39:22 stream.go:151: 스냅샷 업데이트 완료: UUID=TEST2
2025/05/08 16:39:23 stream.go:128: 스냅샷 업데이트 시작: UUID=TEST2, 패킷 크기=52199 바이트
2025/05/08 16:39:23 stream.go:151: 스냅샷 업데이트 완료: UUID=TEST2
2025/05/08 16:39:24 stream.go:128: 스냅샷 업데이트 시작: UUID=TEST2, 패킷 크기=51866 바이트
2025/05/08 16:39:24 stream.go:151: 스냅샷 업데이트 완료: UUID=TEST2
2025/05/08 16:39:25 stream.go:128: 스냅샷 업데이트 시작: UUID=TEST2, 패킷 크기=57456 바이트
2025/05/08 16:39:25 stream.go:151: 스냅샷 업데이트 완료: UUID=TEST2
2025/05/08 16:39:26 stream.go:128: 스냅샷 업데이트 시작: UUID=TEST2, 패킷 크기=57720 바이트
2025/05/08 16:39:26 stream.go:151: 스냅샷 업데이트 완료: UUID=TEST2
2025/05/08 16:39:27 stream.go:128: 스냅샷 업데이트 시작: UUID=TEST2, 패킷 크기=57666 바이트
2025/05/08 16:39:27 stream.go:151: 스냅샷 업데이트 완료: UUID=TEST2
2025/05/08 16:39:28 stream.go:128: 스냅샷 업데이트 시작: UUID=TEST2, 패킷 크기=58033 바이트
2025/05/08 16:39:28 stream.go:151: 스냅샷 업데이트 완료: UUID=TEST2
2025/05/08 16:39:29 stream.go:128: 스냅샷 업데이트 시작: UUID=TEST2, 패킷 크기=57826 바이트
2025/05/08 16:39:29 stream.go:151: 스냅샷 업데이트 완료: UUID=TEST2
2025/05/08 16:39:30 stream.go:128: 스냅샷 업데이트 시작: UUID=TEST2, 패킷 크기=57733 바이트
2025/05/08 16:39:30 stream.go:151: 스냅샷 업데이트 완료: UUID=TEST2
2025/05/08 16:39:31 stream.go:128: 스냅샷 업데이트 시작: UUID=TEST2, 패킷 크기=58288 바이트
2025/05/08 16:39:31 stream.go:151: 스냅샷 업데이트 완료: UUID=TEST2
2025/05/08 16:39:32 stream.go:128: 스냅샷 업데이트 시작: UUID=TEST2, 패킷 크기=53062 바이트
2025/05/08 16:39:32 stream.go:151: 스냅샷 업데이트 완료: UUID=TEST2
2025/05/08 16:39:33 stream.go:128: 스냅샷 업데이트 시작: UUID=TEST2, 패킷 크기=52708 바이트
2025/05/08 16:39:33 stream.go:151: 스냅샷 업데이트 완료: UUID=TEST2
2025/05/08 16:39:34 stream.go:128: 스냅샷 업데이트 시작: UUID=TEST2, 패킷 크기=52466 바이트
2025/05/08 16:39:34 stream.go:151: 스냅샷 업데이트 완료: UUID=TEST2
2025/05/08 16:39:35 stream.go:128: 스냅샷 업데이트 시작: UUID=TEST2, 패킷 크기=52768 바이트
2025/05/08 16:39:35 stream.go:151: 스냅샷 업데이트 완료: UUID=TEST2
2025/05/08 16:39:36 stream.go:128: 스냅샷 업데이트 시작: UUID=TEST2, 패킷 크기=52299 바이트
2025/05/08 16:39:36 stream.go:151: 스냅샷 업데이트 완료: UUID=TEST2
2025/05/08 16:39:37 stream.go:128: 스냅샷 업데이트 시작: UUID=TEST2, 패킷 크기=52204 바이트
2025/05/08 16:39:37 stream.go:151: 스냅샷 업데이트 완료: UUID=TEST2
2025/05/08 16:39:38 stream.go:128: 스냅샷 업데이트 시작: UUID=TEST2, 패킷 크기=52299 바이트
2025/05/08 16:39:38 stream.go:151: 스냅샷 업데이트 완료: UUID=TEST2
2025/05/08 16:39:39 stream.go:128: 스냅샷 업데이트 시작: UUID=TEST2, 패킷 크기=57655 바이트
2025/05/08 16:39:39 stream.go:151: 스냅샷 업데이트 완료: UUID=TEST2
2025/05/08 16:39:40 stream.go:128: 스냅샷 업데이트 시작: UUID=TEST2, 패킷 크기=58006 바이트
2025/05/08 16:39:40 stream.go:151: 스냅샷 업데이트 완료: UUID=TEST2
2025/05/08 16:39:41 stream.go:128: 스냅샷 업데이트 시작: UUID=TEST2, 패킷 크기=52714 바이트
2025/05/08 16:39:41 stream.go:151: 스냅샷 업데이트 완료: UUID=TEST2
2025/05/08 16:39:42 stream.go:128: 스냅샷 업데이트 시작: UUID=TEST2, 패킷 크기=52377 바이트
2025/05/08 16:39:42 stream.go:151: 스냅샷 업데이트 완료: UUID=TEST2
2025/05/08 16:39:43 stream.go:128: 스냅샷 업데이트 시작: UUID=TEST2, 패킷 크기=58175 바이트
2025/05/08 16:39:43 stream.go:151: 스냅샷 업데이트 완료: UUID=TEST2
2025/05/08 16:39:44 stream.go:128: 스냅샷 업데이트 시작: UUID=TEST2, 패킷 크기=52684 바이트
2025/05/08 16:39:44 stream.go:151: 스냅샷 업데이트 완료: UUID=TEST2
2025/05/08 16:39:45 stream.go:128: 스냅샷 업데이트 시작: UUID=TEST2, 패킷 크기=52404 바이트
2025/05/08 16:39:45 stream.go:151: 스냅샷 업데이트 완료: UUID=TEST2
2025/05/08 16:39:46 stream.go:128: 스냅샷 업데이트 시작: UUID=TEST2, 패킷 크기=53010 바이트
2025/05/08 16:39:46 stream.go:151: 스냅샷 업데이트 완료: UUID=TEST2
2025/05/08 16:39:47 stream.go:128: 스냅샷 업데이트 시작: UUID=TEST2, 패킷 크기=48250 바이트
2025/05/08 16:39:47 stream.go:151: 스냅샷 업데이트 완료: UUID=TEST2
2025/05/08 16:39:48 stream.go:128: 스냅샷 업데이트 시작: UUID=TEST2, 패킷 크기=47822 바이트
2025/05/08 16:39:48 stream.go:151: 스냅샷 업데이트 완료: UUID=TEST2
2025/05/08 16:39:49 stream.go:128: 스냅샷 업데이트 시작: UUID=TEST2, 패킷 크기=52249 바이트
2025/05/08 16:39:49 stream.go:151: 스냅샷 업데이트 완료: UUID=TEST2
2025/05/08 16:39:50 stream.go:128: 스냅샷 업데이트 시작: UUID=TEST2, 패킷 크기=57839 바이트
2025/05/08 16:39:50 stream.go:151: 스냅샷 업데이트 완료: UUID=TEST2
2025/05/08 16:39:51 stream.go:128: 스냅샷 업데이트 시작: UUID=TEST2, 패킷 크기=58046 바이트
2025/05/08 16:39:51 stream.go:151: 스냅샷 업데이트 완료: UUID=TEST2
2025/05/08 16:39:52 stream.go:128: 스냅샷 업데이트 시작: UUID=TEST2, 패킷 크기=57951 바이트
2025/05/08 16:39:52 stream.go:151: 스냅샷 업데이트 완료: UUID=TEST2
2025/05/08 16:39:53 stream.go:128: 스냅샷 업데이트 시작: UUID=TEST2, 패킷 크기=51493 바이트
2025/05/08 16:39:53 stream.go:151: 스냅샷 업데이트 완료: UUID=TEST2
2025/05/08 16:39:54 main.go:251: interrupt
2025/05/08 16:39:54 main.go:256: Exiting
2025/05/08 16:40:06 main.go:254: Server Start Awaiting Signal
2025/05/08 16:40:08 stream.go:193: Stream Try Connect TEST2
2025/05/08 16:40:08 adapter.go:61: Set ICEServers [stun:stun.l.google.com:19302]
2025/05/08 16:40:08 stream.go:135: 스냅샷 업데이트 시작: UUID=TEST2, 패킷 크기=52311 바이트
2025/05/08 16:40:08 stream.go:142: 새 스냅샷 생성: UUID=TEST2
2025/05/08 16:40:08 stream.go:158: 스냅샷 업데이트 완료: UUID=TEST2
2025/05/08 16:40:09 stream.go:135: 스냅샷 업데이트 시작: UUID=TEST2, 패킷 크기=52002 바이트
2025/05/08 16:40:09 stream.go:158: 스냅샷 업데이트 완료: UUID=TEST2
2025/05/08 16:40:10 stream.go:135: 스냅샷 업데이트 시작: UUID=TEST2, 패킷 크기=57669 바이트
2025/05/08 16:40:10 stream.go:158: 스냅샷 업데이트 완료: UUID=TEST2
2025/05/08 16:40:11 stream.go:135: 스냅샷 업데이트 시작: UUID=TEST2, 패킷 크기=57793 바이트
2025/05/08 16:40:11 stream.go:158: 스냅샷 업데이트 완료: UUID=TEST2
2025/05/08 16:40:12 stream.go:135: 스냅샷 업데이트 시작: UUID=TEST2, 패킷 크기=52421 바이트
2025/05/08 16:40:12 stream.go:158: 스냅샷 업데이트 완료: UUID=TEST2
2025/05/08 16:40:12 stream.go:95: 스냅샷 요청: UUID=TEST2
2025/05/08 16:40:12 stream.go:117: 스냅샷 변환 시작: UUID=TEST2, 데이터 크기=52421 바이트
2025/05/08 16:40:12 stream.go:37: 스냅샷 캡처 시작: 패킷 크기=52421 바이트
2025/05/08 16:40:13 stream.go:85: 스냅샷 캡처 실패 (ffmpeg wait): exit status 69, stderr: ffmpeg version 7.1.1 Copyright (c) 2000-2025 the FFmpeg developers
  built with Apple clang version 16.0.0 (clang-1600.0.26.6)
  configuration: --prefix=/opt/homebrew/Cellar/ffmpeg/7.1.1_2 --enable-shared --enable-pthreads --enable-version3 --cc=clang --host-cflags= --host-ldflags='-Wl,-ld_classic' --enable-ffplay --enable-gnutls --enable-gpl --enable-libaom --enable-libaribb24 --enable-libbluray --enable-libdav1d --enable-libharfbuzz --enable-libjxl --enable-libmp3lame --enable-libopus --enable-librav1e --enable-librist --enable-librubberband --enable-libsnappy --enable-libsrt --enable-libssh --enable-libsvtav1 --enable-libtesseract --enable-libtheora --enable-libvidstab --enable-libvmaf --enable-libvorbis --enable-libvpx --enable-libwebp --enable-libx264 --enable-libx265 --enable-libxml2 --enable-libxvid --enable-lzma --enable-libfontconfig --enable-libfreetype --enable-frei0r --enable-libass --enable-libopencore-amrnb --enable-libopencore-amrwb --enable-libopenjpeg --enable-libspeex --enable-libsoxr --enable-libzmq --enable-libzimg --disable-libjack --disable-indev=jack --enable-videotoolbox --enable-audiotoolbox --enable-neon
  libavutil      59. 39.100 / 59. 39.100
  libavcodec     61. 19.101 / 61. 19.101
  libavformat    61.  7.100 / 61.  7.100
  libavdevice    61.  3.100 / 61.  3.100
  libavfilter    10.  4.100 / 10.  4.100
  libswscale      8.  3.100 /  8.  3.100
  libswresample   5.  3.100 /  5.  3.100
  libpostproc    58.  3.100 / 58.  3.100
[h264 @ 0x157624790] missing picture in access unit with size 52425
[h264 @ 0x157624790] no frame!
[h264 @ 0x157624470] Could not find codec parameters for stream 0 (Video: h264, none): unspecified size
Consider increasing the value for the 'analyzeduration' (0) and 'probesize' (5000000) options
Input #0, h264, from 'pipe:0':
  Duration: N/A, bitrate: N/A
  Stream #0:0: Video: h264, none, 25 fps, 1200k tbr, 1200k tbn
Stream mapping:
  Stream #0:0 -> #0:0 (h264 (native) -> mjpeg (native))
[h264 @ 0x157717da0] no frame!
[vist#0:0/h264 @ 0x157714220] [dec:h264 @ 0x157715e40] Decoding error: Invalid data found when processing input
[vist#0:0/h264 @ 0x157714220] [dec:h264 @ 0x157715e40] Decode error rate 1 exceeds maximum 0.666667
Cannot determine format of input 0:0 after EOF
[vf#0:0 @ 0x157715930] Task finished with error code: -1094995529 (Invalid data found when processing input)
[vist#0:0/h264 @ 0x157714220] [dec:h264 @ 0x157715e40] Task finished with error code: -1145393733 (Error number -1145393733 occurred)
[vist#0:0/h264 @ 0x157714220] [dec:h264 @ 0x157715e40] Terminating thread with return code -1145393733 (Error number -1145393733 occurred)
[vf#0:0 @ 0x157715930] Terminating thread with return code -1094995529 (Invalid data found when processing input)
[vost#0:0/mjpeg @ 0x157714dd0] Could not open encoder before EOF
[vost#0:0/mjpeg @ 0x157714dd0] Task finished with error code: -22 (Invalid argument)
[vost#0:0/mjpeg @ 0x157714dd0] Terminating thread with return code -22 (Invalid argument)
[out#0/mjpeg @ 0x157714450] Nothing was written into output file, because at least one of its streams received no packets.
frame=    0 fps=0.0 q=0.0 Lsize=       0KiB time=N/A bitrate=N/A speed=N/A    
Conversion failed!
2025/05/08 16:40:13 stream.go:120: 스냅샷 변환 실패: UUID=TEST2, 에러=ffmpeg wait error: exit status 69, stderr: ffmpeg version 7.1.1 Copyright (c) 2000-2025 the FFmpeg developers
  built with Apple clang version 16.0.0 (clang-1600.0.26.6)
  configuration: --prefix=/opt/homebrew/Cellar/ffmpeg/7.1.1_2 --enable-shared --enable-pthreads --enable-version3 --cc=clang --host-cflags= --host-ldflags='-Wl,-ld_classic' --enable-ffplay --enable-gnutls --enable-gpl --enable-libaom --enable-libaribb24 --enable-libbluray --enable-libdav1d --enable-libharfbuzz --enable-libjxl --enable-libmp3lame --enable-libopus --enable-librav1e --enable-librist --enable-librubberband --enable-libsnappy --enable-libsrt --enable-libssh --enable-libsvtav1 --enable-libtesseract --enable-libtheora --enable-libvidstab --enable-libvmaf --enable-libvorbis --enable-libvpx --enable-libwebp --enable-libx264 --enable-libx265 --enable-libxml2 --enable-libxvid --enable-lzma --enable-libfontconfig --enable-libfreetype --enable-frei0r --enable-libass --enable-libopencore-amrnb --enable-libopencore-amrwb --enable-libopenjpeg --enable-libspeex --enable-libsoxr --enable-libzmq --enable-libzimg --disable-libjack --disable-indev=jack --enable-videotoolbox --enable-audiotoolbox --enable-neon
  libavutil      59. 39.100 / 59. 39.100
  libavcodec     61. 19.101 / 61. 19.101
  libavformat    61.  7.100 / 61.  7.100
  libavdevice    61.  3.100 / 61.  3.100
  libavfilter    10.  4.100 / 10.  4.100
  libswscale      8.  3.100 /  8.  3.100
  libswresample   5.  3.100 /  5.  3.100
  libpostproc    58.  3.100 / 58.  3.100
[h264 @ 0x157624790] missing picture in access unit with size 52425
[h264 @ 0x157624790] no frame!
[h264 @ 0x157624470] Could not find codec parameters for stream 0 (Video: h264, none): unspecified size
Consider increasing the value for the 'analyzeduration' (0) and 'probesize' (5000000) options
Input #0, h264, from 'pipe:0':
  Duration: N/A, bitrate: N/A
  Stream #0:0: Video: h264, none, 25 fps, 1200k tbr, 1200k tbn
Stream mapping:
  Stream #0:0 -> #0:0 (h264 (native) -> mjpeg (native))
[h264 @ 0x157717da0] no frame!
[vist#0:0/h264 @ 0x157714220] [dec:h264 @ 0x157715e40] Decoding error: Invalid data found when processing input
[vist#0:0/h264 @ 0x157714220] [dec:h264 @ 0x157715e40] Decode error rate 1 exceeds maximum 0.666667
Cannot determine format of input 0:0 after EOF
[vf#0:0 @ 0x157715930] Task finished with error code: -1094995529 (Invalid data found when processing input)
[vist#0:0/h264 @ 0x157714220] [dec:h264 @ 0x157715e40] Task finished with error code: -1145393733 (Error number -1145393733 occurred)
[vist#0:0/h264 @ 0x157714220] [dec:h264 @ 0x157715e40] Terminating thread with return code -1145393733 (Error number -1145393733 occurred)
[vf#0:0 @ 0x157715930] Terminating thread with return code -1094995529 (Invalid data found when processing input)
[vost#0:0/mjpeg @ 0x157714dd0] Could not open encoder before EOF
[vost#0:0/mjpeg @ 0x157714dd0] Task finished with error code: -22 (Invalid argument)
[vost#0:0/mjpeg @ 0x157714dd0] Terminating thread with return code -22 (Invalid argument)
[out#0/mjpeg @ 0x157714450] Nothing was written into output file, because at least one of its streams received no packets.
frame=    0 fps=0.0 q=0.0 Lsize=       0KiB time=N/A bitrate=N/A speed=N/A    
Conversion failed!
2025/05/08 16:40:13 stream.go:135: 스냅샷 업데이트 시작: UUID=TEST2, 패킷 크기=52379 바이트
2025/05/08 16:40:13 stream.go:158: 스냅샷 업데이트 완료: UUID=TEST2
2025/05/08 16:40:14 stream.go:135: 스냅샷 업데이트 시작: UUID=TEST2, 패킷 크기=52525 바이트
2025/05/08 16:40:14 stream.go:158: 스냅샷 업데이트 완료: UUID=TEST2
2025/05/08 16:40:15 stream.go:135: 스냅샷 업데이트 시작: UUID=TEST2, 패킷 크기=52659 바이트
2025/05/08 16:40:15 stream.go:158: 스냅샷 업데이트 완료: UUID=TEST2
2025/05/08 16:40:16 stream.go:135: 스냅샷 업데이트 시작: UUID=TEST2, 패킷 크기=53110 바이트
2025/05/08 16:40:16 stream.go:158: 스냅샷 업데이트 완료: UUID=TEST2
2025/05/08 16:40:17 stream.go:135: 스냅샷 업데이트 시작: UUID=TEST2, 패킷 크기=52643 바이트
2025/05/08 16:40:17 stream.go:158: 스냅샷 업데이트 완료: UUID=TEST2
2025/05/08 16:40:18 stream.go:135: 스냅샷 업데이트 시작: UUID=TEST2, 패킷 크기=52555 바이트
2025/05/08 16:40:18 stream.go:158: 스냅샷 업데이트 완료: UUID=TEST2
2025/05/08 16:40:19 stream.go:135: 스냅샷 업데이트 시작: UUID=TEST2, 패킷 크기=52657 바이트
2025/05/08 16:40:19 stream.go:158: 스냅샷 업데이트 완료: UUID=TEST2
2025/05/08 16:40:20 stream.go:135: 스냅샷 업데이트 시작: UUID=TEST2, 패킷 크기=57715 바이트
2025/05/08 16:40:20 stream.go:158: 스냅샷 업데이트 완료: UUID=TEST2
2025/05/08 16:40:21 stream.go:135: 스냅샷 업데이트 시작: UUID=TEST2, 패킷 크기=57912 바이트
2025/05/08 16:40:21 stream.go:158: 스냅샷 업데이트 완료: UUID=TEST2
2025/05/08 16:40:22 stream.go:135: 스냅샷 업데이트 시작: UUID=TEST2, 패킷 크기=57670 바이트
2025/05/08 16:40:22 stream.go:158: 스냅샷 업데이트 완료: UUID=TEST2
2025/05/08 16:40:23 stream.go:135: 스냅샷 업데이트 시작: UUID=TEST2, 패킷 크기=57913 바이트
2025/05/08 16:40:23 stream.go:158: 스냅샷 업데이트 완료: UUID=TEST2
2025/05/08 16:40:24 stream.go:135: 스냅샷 업데이트 시작: UUID=TEST2, 패킷 크기=52713 바이트
2025/05/08 16:40:24 stream.go:158: 스냅샷 업데이트 완료: UUID=TEST2
2025/05/08 16:40:25 stream.go:135: 스냅샷 업데이트 시작: UUID=TEST2, 패킷 크기=52726 바이트
2025/05/08 16:40:25 stream.go:158: 스냅샷 업데이트 완료: UUID=TEST2
2025/05/08 16:40:26 stream.go:135: 스냅샷 업데이트 시작: UUID=TEST2, 패킷 크기=52190 바이트
2025/05/08 16:40:26 stream.go:158: 스냅샷 업데이트 완료: UUID=TEST2
2025/05/08 16:40:27 stream.go:135: 스냅샷 업데이트 시작: UUID=TEST2, 패킷 크기=57730 바이트
2025/05/08 16:40:27 stream.go:158: 스냅샷 업데이트 완료: UUID=TEST2
2025/05/08 16:40:28 stream.go:135: 스냅샷 업데이트 시작: UUID=TEST2, 패킷 크기=57951 바이트
2025/05/08 16:40:28 stream.go:158: 스냅샷 업데이트 완료: UUID=TEST2
2025/05/08 16:40:29 stream.go:135: 스냅샷 업데이트 시작: UUID=TEST2, 패킷 크기=57545 바이트
2025/05/08 16:40:29 stream.go:158: 스냅샷 업데이트 완료: UUID=TEST2
2025/05/08 16:40:30 stream.go:135: 스냅샷 업데이트 시작: UUID=TEST2, 패킷 크기=57573 바이트
2025/05/08 16:40:30 stream.go:158: 스냅샷 업데이트 완료: UUID=TEST2
2025/05/08 16:40:31 stream.go:135: 스냅샷 업데이트 시작: UUID=TEST2, 패킷 크기=57890 바이트
2025/05/08 16:40:31 stream.go:158: 스냅샷 업데이트 완료: UUID=TEST2
2025/05/08 16:40:32 stream.go:135: 스냅샷 업데이트 시작: UUID=TEST2, 패킷 크기=51953 바이트
2025/05/08 16:40:32 stream.go:158: 스냅샷 업데이트 완료: UUID=TEST2
2025/05/08 16:40:33 stream.go:135: 스냅샷 업데이트 시작: UUID=TEST2, 패킷 크기=51971 바이트
2025/05/08 16:40:33 stream.go:158: 스냅샷 업데이트 완료: UUID=TEST2
2025/05/08 16:40:34 stream.go:135: 스냅샷 업데이트 시작: UUID=TEST2, 패킷 크기=57903 바이트
2025/05/08 16:40:34 stream.go:158: 스냅샷 업데이트 완료: UUID=TEST2
2025/05/08 16:40:35 stream.go:135: 스냅샷 업데이트 시작: UUID=TEST2, 패킷 크기=63744 바이트
2025/05/08 16:40:35 stream.go:158: 스냅샷 업데이트 완료: UUID=TEST2
2025/05/08 16:40:36 stream.go:135: 스냅샷 업데이트 시작: UUID=TEST2, 패킷 크기=64004 바이트
2025/05/08 16:40:36 stream.go:158: 스냅샷 업데이트 완료: UUID=TEST2
2025/05/08 16:40:37 stream.go:135: 스냅샷 업데이트 시작: UUID=TEST2, 패킷 크기=58020 바이트
2025/05/08 16:40:37 stream.go:158: 스냅샷 업데이트 완료: UUID=TEST2
2025/05/08 16:40:38 stream.go:135: 스냅샷 업데이트 시작: UUID=TEST2, 패킷 크기=52290 바이트
2025/05/08 16:40:38 stream.go:158: 스냅샷 업데이트 완료: UUID=TEST2
2025/05/08 16:40:39 stream.go:135: 스냅샷 업데이트 시작: UUID=TEST2, 패킷 크기=52617 바이트
2025/05/08 16:40:39 stream.go:158: 스냅샷 업데이트 완료: UUID=TEST2
2025/05/08 16:40:40 stream.go:135: 스냅샷 업데이트 시작: UUID=TEST2, 패킷 크기=52468 바이트
2025/05/08 16:40:40 stream.go:158: 스냅샷 업데이트 완료: UUID=TEST2
2025/05/08 16:40:41 stream.go:135: 스냅샷 업데이트 시작: UUID=TEST2, 패킷 크기=52706 바이트
2025/05/08 16:40:41 stream.go:158: 스냅샷 업데이트 완료: UUID=TEST2
2025/05/08 16:40:42 stream.go:135: 스냅샷 업데이트 시작: UUID=TEST2, 패킷 크기=52325 바이트
2025/05/08 16:40:42 stream.go:158: 스냅샷 업데이트 완료: UUID=TEST2
2025/05/08 16:40:43 stream.go:135: 스냅샷 업데이트 시작: UUID=TEST2, 패킷 크기=52251 바이트
2025/05/08 16:40:43 stream.go:158: 스냅샷 업데이트 완료: UUID=TEST2
2025/05/08 16:40:44 stream.go:135: 스냅샷 업데이트 시작: UUID=TEST2, 패킷 크기=57422 바이트
2025/05/08 16:40:44 stream.go:158: 스냅샷 업데이트 완료: UUID=TEST2
2025/05/08 16:40:45 stream.go:135: 스냅샷 업데이트 시작: UUID=TEST2, 패킷 크기=57983 바이트
2025/05/08 16:40:45 stream.go:158: 스냅샷 업데이트 완료: UUID=TEST2
2025/05/08 16:40:46 stream.go:135: 스냅샷 업데이트 시작: UUID=TEST2, 패킷 크기=57924 바이트
2025/05/08 16:40:46 stream.go:158: 스냅샷 업데이트 완료: UUID=TEST2
2025/05/08 16:40:47 stream.go:135: 스냅샷 업데이트 시작: UUID=TEST2, 패킷 크기=57924 바이트
2025/05/08 16:40:47 stream.go:158: 스냅샷 업데이트 완료: UUID=TEST2
2025/05/08 16:40:48 stream.go:135: 스냅샷 업데이트 시작: UUID=TEST2, 패킷 크기=52216 바이트
2025/05/08 16:40:48 stream.go:158: 스냅샷 업데이트 완료: UUID=TEST2
2025/05/08 16:40:49 stream.go:135: 스냅샷 업데이트 시작: UUID=TEST2, 패킷 크기=52567 바이트
2025/05/08 16:40:49 stream.go:158: 스냅샷 업데이트 완료: UUID=TEST2
2025/05/08 16:40:50 stream.go:135: 스냅샷 업데이트 시작: UUID=TEST2, 패킷 크기=57679 바이트
2025/05/08 16:40:50 stream.go:158: 스냅샷 업데이트 완료: UUID=TEST2
2025/05/08 16:40:51 stream.go:135: 스냅샷 업데이트 시작: UUID=TEST2, 패킷 크기=58101 바이트
2025/05/08 16:40:51 stream.go:158: 스냅샷 업데이트 완료: UUID=TEST2
2025/05/08 16:40:52 stream.go:135: 스냅샷 업데이트 시작: UUID=TEST2, 패킷 크기=52307 바이트
2025/05/08 16:40:52 stream.go:158: 스냅샷 업데이트 완료: UUID=TEST2
2025/05/08 16:40:53 stream.go:135: 스냅샷 업데이트 시작: UUID=TEST2, 패킷 크기=51522 바이트
2025/05/08 16:40:53 stream.go:158: 스냅샷 업데이트 완료: UUID=TEST2
2025/05/08 16:40:54 stream.go:135: 스냅샷 업데이트 시작: UUID=TEST2, 패킷 크기=57823 바이트
2025/05/08 16:40:54 stream.go:158: 스냅샷 업데이트 완료: UUID=TEST2
2025/05/08 16:40:55 stream.go:135: 스냅샷 업데이트 시작: UUID=TEST2, 패킷 크기=52199 바이트
2025/05/08 16:40:55 stream.go:158: 스냅샷 업데이트 완료: UUID=TEST2
2025/05/08 16:40:56 stream.go:135: 스냅샷 업데이트 시작: UUID=TEST2, 패킷 크기=51821 바이트
2025/05/08 16:40:56 stream.go:158: 스냅샷 업데이트 완료: UUID=TEST2
2025/05/08 16:40:57 stream.go:135: 스냅샷 업데이트 시작: UUID=TEST2, 패킷 크기=52026 바이트
2025/05/08 16:40:57 stream.go:158: 스냅샷 업데이트 완료: UUID=TEST2
2025/05/08 16:40:58 stream.go:135: 스냅샷 업데이트 시작: UUID=TEST2, 패킷 크기=51892 바이트
2025/05/08 16:40:58 stream.go:158: 스냅샷 업데이트 완료: UUID=TEST2
2025/05/08 16:40:59 stream.go:135: 스냅샷 업데이트 시작: UUID=TEST2, 패킷 크기=57471 바이트
2025/05/08 16:40:59 stream.go:158: 스냅샷 업데이트 완료: UUID=TEST2
2025/05/08 16:41:00 stream.go:135: 스냅샷 업데이트 시작: UUID=TEST2, 패킷 크기=57164 바이트
2025/05/08 16:41:00 stream.go:158: 스냅샷 업데이트 완료: UUID=TEST2
2025/05/08 16:41:01 stream.go:135: 스냅샷 업데이트 시작: UUID=TEST2, 패킷 크기=57077 바이트
2025/05/08 16:41:01 stream.go:158: 스냅샷 업데이트 완료: UUID=TEST2
2025/05/08 16:41:02 stream.go:135: 스냅샷 업데이트 시작: UUID=TEST2, 패킷 크기=63944 바이트
2025/05/08 16:41:02 stream.go:158: 스냅샷 업데이트 완료: UUID=TEST2
2025/05/08 16:41:03 stream.go:135: 스냅샷 업데이트 시작: UUID=TEST2, 패킷 크기=63587 바이트
2025/05/08 16:41:03 stream.go:158: 스냅샷 업데이트 완료: UUID=TEST2
2025/05/08 16:41:04 main.go:251: interrupt
2025/05/08 16:41:04 main.go:256: Exiting
2025/05/08 16:41:16 main.go:254: Server Start Awaiting Signal
2025/05/08 16:41:22 stream.go:201: Stream Try Connect TEST2
2025/05/08 16:41:22 adapter.go:61: Set ICEServers [stun:stun.l.google.com:19302]
2025/05/08 16:41:27 stream.go:204: Stream Exit Rtsp Disconnect
2025/05/08 16:41:28 stream.go:201: Stream Try Connect TEST2
2025/05/08 16:41:29 stream.go:143: 스냅샷 업데이트 시작: UUID=TEST2, 패킷 크기=63960 바이트
2025/05/08 16:41:29 stream.go:150: 새 스냅샷 생성: UUID=TEST2
2025/05/08 16:41:29 stream.go:166: 스냅샷 업데이트 완료: UUID=TEST2
2025/05/08 16:41:30 stream.go:143: 스냅샷 업데이트 시작: UUID=TEST2, 패킷 크기=63885 바이트
2025/05/08 16:41:30 stream.go:166: 스냅샷 업데이트 완료: UUID=TEST2
2025/05/08 16:41:31 stream.go:143: 스냅샷 업데이트 시작: UUID=TEST2, 패킷 크기=64110 바이트
2025/05/08 16:41:31 stream.go:166: 스냅샷 업데이트 완료: UUID=TEST2
2025/05/08 16:41:32 stream.go:143: 스냅샷 업데이트 시작: UUID=TEST2, 패킷 크기=64039 바이트
2025/05/08 16:41:32 stream.go:166: 스냅샷 업데이트 완료: UUID=TEST2
2025/05/08 16:41:33 stream.go:143: 스냅샷 업데이트 시작: UUID=TEST2, 패킷 크기=64006 바이트
2025/05/08 16:41:33 stream.go:166: 스냅샷 업데이트 완료: UUID=TEST2
2025/05/08 16:41:34 stream.go:143: 스냅샷 업데이트 시작: UUID=TEST2, 패킷 크기=63867 바이트
2025/05/08 16:41:34 stream.go:166: 스냅샷 업데이트 완료: UUID=TEST2
2025/05/08 16:41:35 stream.go:143: 스냅샷 업데이트 시작: UUID=TEST2, 패킷 크기=57817 바이트
2025/05/08 16:41:35 stream.go:166: 스냅샷 업데이트 완료: UUID=TEST2
2025/05/08 16:41:36 stream.go:143: 스냅샷 업데이트 시작: UUID=TEST2, 패킷 크기=57973 바이트
2025/05/08 16:41:36 stream.go:166: 스냅샷 업데이트 완료: UUID=TEST2
2025/05/08 16:41:37 stream.go:143: 스냅샷 업데이트 시작: UUID=TEST2, 패킷 크기=57571 바이트
2025/05/08 16:41:37 stream.go:166: 스냅샷 업데이트 완료: UUID=TEST2
2025/05/08 16:41:38 stream.go:143: 스냅샷 업데이트 시작: UUID=TEST2, 패킷 크기=57825 바이트
2025/05/08 16:41:38 stream.go:166: 스냅샷 업데이트 완료: UUID=TEST2
2025/05/08 16:41:39 stream.go:143: 스냅샷 업데이트 시작: UUID=TEST2, 패킷 크기=58008 바이트
2025/05/08 16:41:39 stream.go:166: 스냅샷 업데이트 완료: UUID=TEST2
2025/05/08 16:41:40 stream.go:143: 스냅샷 업데이트 시작: UUID=TEST2, 패킷 크기=58370 바이트
2025/05/08 16:41:40 stream.go:166: 스냅샷 업데이트 완료: UUID=TEST2
2025/05/08 16:41:41 stream.go:143: 스냅샷 업데이트 시작: UUID=TEST2, 패킷 크기=57874 바이트
2025/05/08 16:41:41 stream.go:166: 스냅샷 업데이트 완료: UUID=TEST2
2025/05/08 16:41:42 stream.go:103: 스냅샷 요청: UUID=TEST2
2025/05/08 16:41:42 stream.go:125: 스냅샷 변환 시작: UUID=TEST2, 데이터 크기=57874 바이트
2025/05/08 16:41:42 stream.go:37: 스냅샷 캡처 시작: 패킷 크기=57874 바이트
2025/05/08 16:41:42 stream.go:143: 스냅샷 업데이트 시작: UUID=TEST2, 패킷 크기=57578 바이트
2025/05/08 16:41:43 stream.go:88: 스냅샷 캡처 실패 (ffmpeg wait): exit status 69, stderr: ffmpeg version 7.1.1 Copyright (c) 2000-2025 the FFmpeg developers
  built with Apple clang version 16.0.0 (clang-1600.0.26.6)
  configuration: --prefix=/opt/homebrew/Cellar/ffmpeg/7.1.1_2 --enable-shared --enable-pthreads --enable-version3 --cc=clang --host-cflags= --host-ldflags='-Wl,-ld_classic' --enable-ffplay --enable-gnutls --enable-gpl --enable-libaom --enable-libaribb24 --enable-libbluray --enable-libdav1d --enable-libharfbuzz --enable-libjxl --enable-libmp3lame --enable-libopus --enable-librav1e --enable-librist --enable-librubberband --enable-libsnappy --enable-libsrt --enable-libssh --enable-libsvtav1 --enable-libtesseract --enable-libtheora --enable-libvidstab --enable-libvmaf --enable-libvorbis --enable-libvpx --enable-libwebp --enable-libx264 --enable-libx265 --enable-libxml2 --enable-libxvid --enable-lzma --enable-libfontconfig --enable-libfreetype --enable-frei0r --enable-libass --enable-libopencore-amrnb --enable-libopencore-amrwb --enable-libopenjpeg --enable-libspeex --enable-libsoxr --enable-libzmq --enable-libzimg --disable-libjack --disable-indev=jack --enable-videotoolbox --enable-audiotoolbox --enable-neon
  libavutil      59. 39.100 / 59. 39.100
  libavcodec     61. 19.101 / 61. 19.101
  libavformat    61.  7.100 / 61.  7.100
  libavdevice    61.  3.100 / 61.  3.100
  libavfilter    10.  4.100 / 10.  4.100
  libswscale      8.  3.100 /  8.  3.100
  libswresample   5.  3.100 /  5.  3.100
  libpostproc    58.  3.100 / 58.  3.100
[h264 @ 0x156005620] missing picture in access unit with size 57878
[h264 @ 0x156005620] no frame!
[h264 @ 0x156004a90] Could not find codec parameters for stream 0 (Video: h264, none): unspecified size
Consider increasing the value for the 'analyzeduration' (1000000) and 'probesize' (1000000) options
Input #0, h264, from 'pipe:0':
  Duration: N/A, bitrate: N/A
  Stream #0:0: Video: h264, none, 25 fps, 1200k tbr, 1200k tbn
Stream mapping:
  Stream #0:0 -> #0:0 (h264 (native) -> mjpeg (native))
[h264 @ 0x154f15590] no frame!
[vist#0:0/h264 @ 0x15600e630] [dec:h264 @ 0x156006ee0] Decoding error: Invalid data found when processing input
[vist#0:0/h264 @ 0x15600e630] [dec:h264 @ 0x156006ee0] Decode error rate 1 exceeds maximum 0.666667
[vist#0:0/h264 @ 0x15600e630] [dec:h264 @ 0x156006ee0] Task finished with error code: -1145393733 (Error number -1145393733 occurred)
[vist#0:0/h264 @ 0x15600e630] [dec:h264 @ 0x156006ee0] Terminating thread with return code -1145393733 (Error number -1145393733 occurred)
Cannot determine format of input 0:0 after EOF
[vf#0:0 @ 0x156006990] Task finished with error code: -1094995529 (Invalid data found when processing input)
[vf#0:0 @ 0x156006990] Terminating thread with return code -1094995529 (Invalid data found when processing input)
[vost#0:0/mjpeg @ 0x156005da0] Could not open encoder before EOF
[vost#0:0/mjpeg @ 0x156005da0] Task finished with error code: -22 (Invalid argument)
[vost#0:0/mjpeg @ 0x156005da0] Terminating thread with return code -22 (Invalid argument)
[out#0/mjpeg @ 0x15600e840] Nothing was written into output file, because at least one of its streams received no packets.
frame=    0 fps=0.0 q=0.0 Lsize=       0KiB time=N/A bitrate=N/A speed=N/A    
Conversion failed!
2025/05/08 16:41:43 stream.go:128: 스냅샷 변환 실패: UUID=TEST2, 에러=ffmpeg wait error: exit status 69, stderr: ffmpeg version 7.1.1 Copyright (c) 2000-2025 the FFmpeg developers
  built with Apple clang version 16.0.0 (clang-1600.0.26.6)
  configuration: --prefix=/opt/homebrew/Cellar/ffmpeg/7.1.1_2 --enable-shared --enable-pthreads --enable-version3 --cc=clang --host-cflags= --host-ldflags='-Wl,-ld_classic' --enable-ffplay --enable-gnutls --enable-gpl --enable-libaom --enable-libaribb24 --enable-libbluray --enable-libdav1d --enable-libharfbuzz --enable-libjxl --enable-libmp3lame --enable-libopus --enable-librav1e --enable-librist --enable-librubberband --enable-libsnappy --enable-libsrt --enable-libssh --enable-libsvtav1 --enable-libtesseract --enable-libtheora --enable-libvidstab --enable-libvmaf --enable-libvorbis --enable-libvpx --enable-libwebp --enable-libx264 --enable-libx265 --enable-libxml2 --enable-libxvid --enable-lzma --enable-libfontconfig --enable-libfreetype --enable-frei0r --enable-libass --enable-libopencore-amrnb --enable-libopencore-amrwb --enable-libopenjpeg --enable-libspeex --enable-libsoxr --enable-libzmq --enable-libzimg --disable-libjack --disable-indev=jack --enable-videotoolbox --enable-audiotoolbox --enable-neon
  libavutil      59. 39.100 / 59. 39.100
  libavcodec     61. 19.101 / 61. 19.101
  libavformat    61.  7.100 / 61.  7.100
  libavdevice    61.  3.100 / 61.  3.100
  libavfilter    10.  4.100 / 10.  4.100
  libswscale      8.  3.100 /  8.  3.100
  libswresample   5.  3.100 /  5.  3.100
  libpostproc    58.  3.100 / 58.  3.100
[h264 @ 0x156005620] missing picture in access unit with size 57878
[h264 @ 0x156005620] no frame!
[h264 @ 0x156004a90] Could not find codec parameters for stream 0 (Video: h264, none): unspecified size
Consider increasing the value for the 'analyzeduration' (1000000) and 'probesize' (1000000) options
Input #0, h264, from 'pipe:0':
  Duration: N/A, bitrate: N/A
  Stream #0:0: Video: h264, none, 25 fps, 1200k tbr, 1200k tbn
Stream mapping:
  Stream #0:0 -> #0:0 (h264 (native) -> mjpeg (native))
[h264 @ 0x154f15590] no frame!
[vist#0:0/h264 @ 0x15600e630] [dec:h264 @ 0x156006ee0] Decoding error: Invalid data found when processing input
[vist#0:0/h264 @ 0x15600e630] [dec:h264 @ 0x156006ee0] Decode error rate 1 exceeds maximum 0.666667
[vist#0:0/h264 @ 0x15600e630] [dec:h264 @ 0x156006ee0] Task finished with error code: -1145393733 (Error number -1145393733 occurred)
[vist#0:0/h264 @ 0x15600e630] [dec:h264 @ 0x156006ee0] Terminating thread with return code -1145393733 (Error number -1145393733 occurred)
Cannot determine format of input 0:0 after EOF
[vf#0:0 @ 0x156006990] Task finished with error code: -1094995529 (Invalid data found when processing input)
[vf#0:0 @ 0x156006990] Terminating thread with return code -1094995529 (Invalid data found when processing input)
[vost#0:0/mjpeg @ 0x156005da0] Could not open encoder before EOF
[vost#0:0/mjpeg @ 0x156005da0] Task finished with error code: -22 (Invalid argument)
[vost#0:0/mjpeg @ 0x156005da0] Terminating thread with return code -22 (Invalid argument)
[out#0/mjpeg @ 0x15600e840] Nothing was written into output file, because at least one of its streams received no packets.
frame=    0 fps=0.0 q=0.0 Lsize=       0KiB time=N/A bitrate=N/A speed=N/A    
Conversion failed!
2025/05/08 16:41:43 stream.go:166: 스냅샷 업데이트 완료: UUID=TEST2
2025/05/08 16:41:43 stream.go:143: 스냅샷 업데이트 시작: UUID=TEST2, 패킷 크기=58074 바이트
2025/05/08 16:41:43 stream.go:166: 스냅샷 업데이트 완료: UUID=TEST2
2025/05/08 16:41:44 stream.go:143: 스냅샷 업데이트 시작: UUID=TEST2, 패킷 크기=57688 바이트
2025/05/08 16:41:44 stream.go:166: 스냅샷 업데이트 완료: UUID=TEST2
2025/05/08 16:41:45 stream.go:143: 스냅샷 업데이트 시작: UUID=TEST2, 패킷 크기=57928 바이트
2025/05/08 16:41:45 stream.go:166: 스냅샷 업데이트 완료: UUID=TEST2
2025/05/08 16:41:46 stream.go:143: 스냅샷 업데이트 시작: UUID=TEST2, 패킷 크기=58036 바이트
2025/05/08 16:41:46 stream.go:166: 스냅샷 업데이트 완료: UUID=TEST2
2025/05/08 16:41:47 stream.go:143: 스냅샷 업데이트 시작: UUID=TEST2, 패킷 크기=58038 바이트
2025/05/08 16:41:47 stream.go:166: 스냅샷 업데이트 완료: UUID=TEST2
2025/05/08 16:41:48 stream.go:143: 스냅샷 업데이트 시작: UUID=TEST2, 패킷 크기=58102 바이트
2025/05/08 16:41:48 stream.go:166: 스냅샷 업데이트 완료: UUID=TEST2
2025/05/08 16:41:49 stream.go:143: 스냅샷 업데이트 시작: UUID=TEST2, 패킷 크기=58080 바이트
2025/05/08 16:41:49 stream.go:166: 스냅샷 업데이트 완료: UUID=TEST2
2025/05/08 16:41:50 stream.go:143: 스냅샷 업데이트 시작: UUID=TEST2, 패킷 크기=58015 바이트
2025/05/08 16:41:50 stream.go:166: 스냅샷 업데이트 완료: UUID=TEST2
2025/05/08 16:41:51 stream.go:143: 스냅샷 업데이트 시작: UUID=TEST2, 패킷 크기=64327 바이트
2025/05/08 16:41:51 stream.go:166: 스냅샷 업데이트 완료: UUID=TEST2
2025/05/08 16:41:52 stream.go:143: 스냅샷 업데이트 시작: UUID=TEST2, 패킷 크기=64522 바이트
2025/05/08 16:41:52 stream.go:166: 스냅샷 업데이트 완료: UUID=TEST2
2025/05/08 16:41:53 stream.go:143: 스냅샷 업데이트 시작: UUID=TEST2, 패킷 크기=64254 바이트
2025/05/08 16:41:53 stream.go:166: 스냅샷 업데이트 완료: UUID=TEST2
2025/05/08 16:41:54 stream.go:143: 스냅샷 업데이트 시작: UUID=TEST2, 패킷 크기=64595 바이트
2025/05/08 16:41:54 stream.go:166: 스냅샷 업데이트 완료: UUID=TEST2
2025/05/08 16:41:55 stream.go:143: 스냅샷 업데이트 시작: UUID=TEST2, 패킷 크기=64553 바이트
2025/05/08 16:41:55 stream.go:166: 스냅샷 업데이트 완료: UUID=TEST2
2025/05/08 16:41:56 stream.go:143: 스냅샷 업데이트 시작: UUID=TEST2, 패킷 크기=58178 바이트
2025/05/08 16:41:56 stream.go:166: 스냅샷 업데이트 완료: UUID=TEST2
2025/05/08 16:41:57 stream.go:143: 스냅샷 업데이트 시작: UUID=TEST2, 패킷 크기=58265 바이트
2025/05/08 16:41:57 stream.go:166: 스냅샷 업데이트 완료: UUID=TEST2
2025/05/08 16:41:58 stream.go:143: 스냅샷 업데이트 시작: UUID=TEST2, 패킷 크기=57829 바이트
2025/05/08 16:41:58 stream.go:166: 스냅샷 업데이트 완료: UUID=TEST2
2025/05/08 16:41:59 stream.go:143: 스냅샷 업데이트 시작: UUID=TEST2, 패킷 크기=57950 바이트
2025/05/08 16:41:59 stream.go:166: 스냅샷 업데이트 완료: UUID=TEST2
2025/05/08 16:42:00 stream.go:143: 스냅샷 업데이트 시작: UUID=TEST2, 패킷 크기=58437 바이트
2025/05/08 16:42:00 stream.go:166: 스냅샷 업데이트 완료: UUID=TEST2
2025/05/08 16:42:01 stream.go:143: 스냅샷 업데이트 시작: UUID=TEST2, 패킷 크기=58352 바이트
2025/05/08 16:42:01 stream.go:166: 스냅샷 업데이트 완료: UUID=TEST2
2025/05/08 16:42:02 stream.go:143: 스냅샷 업데이트 시작: UUID=TEST2, 패킷 크기=58153 바이트
2025/05/08 16:42:02 stream.go:166: 스냅샷 업데이트 완료: UUID=TEST2
2025/05/08 16:42:03 stream.go:143: 스냅샷 업데이트 시작: UUID=TEST2, 패킷 크기=57855 바이트
2025/05/08 16:42:03 stream.go:166: 스냅샷 업데이트 완료: UUID=TEST2
2025/05/08 16:42:04 stream.go:143: 스냅샷 업데이트 시작: UUID=TEST2, 패킷 크기=58286 바이트
2025/05/08 16:42:04 stream.go:166: 스냅샷 업데이트 완료: UUID=TEST2
2025/05/08 16:42:05 stream.go:143: 스냅샷 업데이트 시작: UUID=TEST2, 패킷 크기=57946 바이트
2025/05/08 16:42:05 stream.go:166: 스냅샷 업데이트 완료: UUID=TEST2
2025/05/08 16:42:06 stream.go:143: 스냅샷 업데이트 시작: UUID=TEST2, 패킷 크기=58195 바이트
2025/05/08 16:42:06 stream.go:166: 스냅샷 업데이트 완료: UUID=TEST2
2025/05/08 16:42:07 stream.go:143: 스냅샷 업데이트 시작: UUID=TEST2, 패킷 크기=58529 바이트
2025/05/08 16:42:07 stream.go:166: 스냅샷 업데이트 완료: UUID=TEST2
2025/05/08 16:42:08 stream.go:143: 스냅샷 업데이트 시작: UUID=TEST2, 패킷 크기=58259 바이트
2025/05/08 16:42:08 stream.go:166: 스냅샷 업데이트 완료: UUID=TEST2
2025/05/08 16:42:09 stream.go:143: 스냅샷 업데이트 시작: UUID=TEST2, 패킷 크기=58245 바이트
2025/05/08 16:42:09 stream.go:166: 스냅샷 업데이트 완료: UUID=TEST2
2025/05/08 16:42:10 stream.go:143: 스냅샷 업데이트 시작: UUID=TEST2, 패킷 크기=58114 바이트
2025/05/08 16:42:10 stream.go:166: 스냅샷 업데이트 완료: UUID=TEST2
2025/05/08 16:42:11 stream.go:143: 스냅샷 업데이트 시작: UUID=TEST2, 패킷 크기=58308 바이트
2025/05/08 16:42:11 stream.go:166: 스냅샷 업데이트 완료: UUID=TEST2
2025/05/08 16:42:12 stream.go:143: 스냅샷 업데이트 시작: UUID=TEST2, 패킷 크기=57840 바이트
2025/05/08 16:42:12 stream.go:166: 스냅샷 업데이트 완료: UUID=TEST2
2025/05/08 16:42:13 stream.go:143: 스냅샷 업데이트 시작: UUID=TEST2, 패킷 크기=57716 바이트
2025/05/08 16:42:13 stream.go:166: 스냅샷 업데이트 완료: UUID=TEST2
2025/05/08 16:42:14 stream.go:143: 스냅샷 업데이트 시작: UUID=TEST2, 패킷 크기=57684 바이트
2025/05/08 16:42:14 stream.go:166: 스냅샷 업데이트 완료: UUID=TEST2
2025/05/08 16:42:15 stream.go:143: 스냅샷 업데이트 시작: UUID=TEST2, 패킷 크기=58099 바이트
2025/05/08 16:42:15 stream.go:166: 스냅샷 업데이트 완료: UUID=TEST2
2025/05/08 16:42:16 stream.go:143: 스냅샷 업데이트 시작: UUID=TEST2, 패킷 크기=52420 바이트
2025/05/08 16:42:16 stream.go:166: 스냅샷 업데이트 완료: UUID=TEST2
2025/05/08 16:42:17 stream.go:143: 스냅샷 업데이트 시작: UUID=TEST2, 패킷 크기=51876 바이트
2025/05/08 16:42:17 stream.go:166: 스냅샷 업데이트 완료: UUID=TEST2
2025/05/08 16:42:18 stream.go:143: 스냅샷 업데이트 시작: UUID=TEST2, 패킷 크기=52561 바이트
2025/05/08 16:42:18 stream.go:166: 스냅샷 업데이트 완료: UUID=TEST2
2025/05/08 16:42:19 stream.go:143: 스냅샷 업데이트 시작: UUID=TEST2, 패킷 크기=57958 바이트
2025/05/08 16:42:19 stream.go:166: 스냅샷 업데이트 완료: UUID=TEST2
2025/05/08 16:42:20 stream.go:143: 스냅샷 업데이트 시작: UUID=TEST2, 패킷 크기=63688 바이트
2025/05/08 16:42:20 stream.go:166: 스냅샷 업데이트 완료: UUID=TEST2
2025/05/08 16:42:21 stream.go:143: 스냅샷 업데이트 시작: UUID=TEST2, 패킷 크기=63730 바이트
2025/05/08 16:42:21 stream.go:166: 스냅샷 업데이트 완료: UUID=TEST2
2025/05/08 16:42:22 stream.go:143: 스냅샷 업데이트 시작: UUID=TEST2, 패킷 크기=63994 바이트
2025/05/08 16:42:22 stream.go:166: 스냅샷 업데이트 완료: UUID=TEST2
2025/05/08 16:42:23 stream.go:143: 스냅샷 업데이트 시작: UUID=TEST2, 패킷 크기=64025 바이트
2025/05/08 16:42:23 stream.go:166: 스냅샷 업데이트 완료: UUID=TEST2
2025/05/08 16:42:24 stream.go:143: 스냅샷 업데이트 시작: UUID=TEST2, 패킷 크기=63787 바이트
2025/05/08 16:42:24 stream.go:166: 스냅샷 업데이트 완료: UUID=TEST2
2025/05/08 16:42:25 stream.go:143: 스냅샷 업데이트 시작: UUID=TEST2, 패킷 크기=57940 바이트
2025/05/08 16:42:25 stream.go:166: 스냅샷 업데이트 완료: UUID=TEST2
2025/05/08 16:42:26 stream.go:143: 스냅샷 업데이트 시작: UUID=TEST2, 패킷 크기=57980 바이트
2025/05/08 16:42:26 stream.go:166: 스냅샷 업데이트 완료: UUID=TEST2
2025/05/08 16:42:27 stream.go:143: 스냅샷 업데이트 시작: UUID=TEST2, 패킷 크기=52212 바이트
2025/05/08 16:42:27 stream.go:166: 스냅샷 업데이트 완료: UUID=TEST2
2025/05/08 16:42:28 stream.go:143: 스냅샷 업데이트 시작: UUID=TEST2, 패킷 크기=58070 바이트
2025/05/08 16:42:28 stream.go:166: 스냅샷 업데이트 완료: UUID=TEST2
2025/05/08 16:42:29 stream.go:143: 스냅샷 업데이트 시작: UUID=TEST2, 패킷 크기=57723 바이트
2025/05/08 16:42:29 stream.go:166: 스냅샷 업데이트 완료: UUID=TEST2
2025/05/08 16:42:30 stream.go:143: 스냅샷 업데이트 시작: UUID=TEST2, 패킷 크기=52269 바이트
2025/05/08 16:42:30 stream.go:166: 스냅샷 업데이트 완료: UUID=TEST2
2025/05/08 16:42:31 stream.go:143: 스냅샷 업데이트 시작: UUID=TEST2, 패킷 크기=58048 바이트
2025/05/08 16:42:31 stream.go:166: 스냅샷 업데이트 완료: UUID=TEST2
2025/05/08 16:42:32 stream.go:143: 스냅샷 업데이트 시작: UUID=TEST2, 패킷 크기=57543 바이트
2025/05/08 16:42:32 stream.go:166: 스냅샷 업데이트 완료: UUID=TEST2
2025/05/08 16:42:33 stream.go:143: 스냅샷 업데이트 시작: UUID=TEST2, 패킷 크기=57527 바이트
2025/05/08 16:42:33 stream.go:166: 스냅샷 업데이트 완료: UUID=TEST2
2025/05/08 16:42:34 stream.go:143: 스냅샷 업데이트 시작: UUID=TEST2, 패킷 크기=58046 바이트
2025/05/08 16:42:34 stream.go:166: 스냅샷 업데이트 완료: UUID=TEST2
2025/05/08 16:42:35 stream.go:143: 스냅샷 업데이트 시작: UUID=TEST2, 패킷 크기=57663 바이트
2025/05/08 16:42:35 stream.go:166: 스냅샷 업데이트 완료: UUID=TEST2
2025/05/08 16:42:36 stream.go:143: 스냅샷 업데이트 시작: UUID=TEST2, 패킷 크기=57932 바이트
2025/05/08 16:42:36 stream.go:166: 스냅샷 업데이트 완료: UUID=TEST2
2025/05/08 16:42:37 stream.go:143: 스냅샷 업데이트 시작: UUID=TEST2, 패킷 크기=58027 바이트
2025/05/08 16:42:37 stream.go:166: 스냅샷 업데이트 완료: UUID=TEST2
2025/05/08 16:42:38 stream.go:143: 스냅샷 업데이트 시작: UUID=TEST2, 패킷 크기=52761 바이트
2025/05/08 16:42:38 stream.go:166: 스냅샷 업데이트 완료: UUID=TEST2
2025/05/08 16:42:39 stream.go:143: 스냅샷 업데이트 시작: UUID=TEST2, 패킷 크기=57890 바이트
2025/05/08 16:42:39 stream.go:166: 스냅샷 업데이트 완료: UUID=TEST2
2025/05/08 16:42:40 stream.go:143: 스냅샷 업데이트 시작: UUID=TEST2, 패킷 크기=58183 바이트
2025/05/08 16:42:40 stream.go:166: 스냅샷 업데이트 완료: UUID=TEST2
2025/05/08 16:42:41 stream.go:143: 스냅샷 업데이트 시작: UUID=TEST2, 패킷 크기=58300 바이트
2025/05/08 16:42:41 stream.go:166: 스냅샷 업데이트 완료: UUID=TEST2
2025/05/08 16:42:42 stream.go:143: 스냅샷 업데이트 시작: UUID=TEST2, 패킷 크기=53120 바이트
2025/05/08 16:42:42 stream.go:166: 스냅샷 업데이트 완료: UUID=TEST2
2025/05/08 16:42:43 stream.go:143: 스냅샷 업데이트 시작: UUID=TEST2, 패킷 크기=48119 바이트
2025/05/08 16:42:43 stream.go:166: 스냅샷 업데이트 완료: UUID=TEST2
2025/05/08 16:42:44 stream.go:143: 스냅샷 업데이트 시작: UUID=TEST2, 패킷 크기=52628 바이트
2025/05/08 16:42:44 stream.go:166: 스냅샷 업데이트 완료: UUID=TEST2
2025/05/08 16:42:45 stream.go:143: 스냅샷 업데이트 시작: UUID=TEST2, 패킷 크기=58451 바이트
2025/05/08 16:42:45 stream.go:166: 스냅샷 업데이트 완료: UUID=TEST2
2025/05/08 16:42:46 stream.go:143: 스냅샷 업데이트 시작: UUID=TEST2, 패킷 크기=52952 바이트
2025/05/08 16:42:46 stream.go:166: 스냅샷 업데이트 완료: UUID=TEST2
2025/05/08 16:42:47 stream.go:143: 스냅샷 업데이트 시작: UUID=TEST2, 패킷 크기=52501 바이트
2025/05/08 16:42:47 stream.go:166: 스냅샷 업데이트 완료: UUID=TEST2
2025/05/08 16:42:48 stream.go:143: 스냅샷 업데이트 시작: UUID=TEST2, 패킷 크기=52493 바이트
2025/05/08 16:42:48 stream.go:166: 스냅샷 업데이트 완료: UUID=TEST2
2025/05/08 16:42:49 stream.go:143: 스냅샷 업데이트 시작: UUID=TEST2, 패킷 크기=57806 바이트
2025/05/08 16:42:49 stream.go:166: 스냅샷 업데이트 완료: UUID=TEST2
2025/05/08 16:42:50 stream.go:143: 스냅샷 업데이트 시작: UUID=TEST2, 패킷 크기=63609 바이트
2025/05/08 16:42:50 stream.go:166: 스냅샷 업데이트 완료: UUID=TEST2
2025/05/08 16:42:51 stream.go:143: 스냅샷 업데이트 시작: UUID=TEST2, 패킷 크기=57672 바이트
2025/05/08 16:42:51 stream.go:166: 스냅샷 업데이트 완료: UUID=TEST2
2025/05/08 16:42:52 stream.go:143: 스냅샷 업데이트 시작: UUID=TEST2, 패킷 크기=64008 바이트
2025/05/08 16:42:52 stream.go:166: 스냅샷 업데이트 완료: UUID=TEST2
2025/05/08 16:42:53 stream.go:143: 스냅샷 업데이트 시작: UUID=TEST2, 패킷 크기=57873 바이트
2025/05/08 16:42:53 stream.go:166: 스냅샷 업데이트 완료: UUID=TEST2
2025/05/08 16:42:54 stream.go:143: 스냅샷 업데이트 시작: UUID=TEST2, 패킷 크기=53621 바이트
2025/05/08 16:42:54 stream.go:166: 스냅샷 업데이트 완료: UUID=TEST2
2025/05/08 16:42:55 stream.go:143: 스냅샷 업데이트 시작: UUID=TEST2, 패킷 크기=53103 바이트
2025/05/08 16:42:55 stream.go:166: 스냅샷 업데이트 완료: UUID=TEST2
2025/05/08 16:42:56 stream.go:143: 스냅샷 업데이트 시작: UUID=TEST2, 패킷 크기=53151 바이트
2025/05/08 16:42:56 stream.go:166: 스냅샷 업데이트 완료: UUID=TEST2
2025/05/08 16:42:57 stream.go:143: 스냅샷 업데이트 시작: UUID=TEST2, 패킷 크기=47613 바이트
2025/05/08 16:42:57 stream.go:166: 스냅샷 업데이트 완료: UUID=TEST2
2025/05/08 16:42:58 stream.go:143: 스냅샷 업데이트 시작: UUID=TEST2, 패킷 크기=52394 바이트
2025/05/08 16:42:58 stream.go:166: 스냅샷 업데이트 완료: UUID=TEST2
2025/05/08 16:42:59 stream.go:143: 스냅샷 업데이트 시작: UUID=TEST2, 패킷 크기=52443 바이트
2025/05/08 16:42:59 stream.go:166: 스냅샷 업데이트 완료: UUID=TEST2
2025/05/08 16:43:00 stream.go:143: 스냅샷 업데이트 시작: UUID=TEST2, 패킷 크기=57730 바이트
2025/05/08 16:43:00 stream.go:166: 스냅샷 업데이트 완료: UUID=TEST2
2025/05/08 16:43:01 stream.go:143: 스냅샷 업데이트 시작: UUID=TEST2, 패킷 크기=58523 바이트
2025/05/08 16:43:01 stream.go:166: 스냅샷 업데이트 완료: UUID=TEST2
2025/05/08 16:43:02 stream.go:143: 스냅샷 업데이트 시작: UUID=TEST2, 패킷 크기=58168 바이트
2025/05/08 16:43:02 stream.go:166: 스냅샷 업데이트 완료: UUID=TEST2
2025/05/08 16:43:03 stream.go:143: 스냅샷 업데이트 시작: UUID=TEST2, 패킷 크기=57966 바이트
2025/05/08 16:43:03 stream.go:166: 스냅샷 업데이트 완료: UUID=TEST2
2025/05/08 16:43:04 stream.go:143: 스냅샷 업데이트 시작: UUID=TEST2, 패킷 크기=52897 바이트
2025/05/08 16:43:04 stream.go:166: 스냅샷 업데이트 완료: UUID=TEST2
2025/05/08 16:43:05 stream.go:143: 스냅샷 업데이트 시작: UUID=TEST2, 패킷 크기=52954 바이트
2025/05/08 16:43:05 stream.go:166: 스냅샷 업데이트 완료: UUID=TEST2
2025/05/08 16:43:06 stream.go:143: 스냅샷 업데이트 시작: UUID=TEST2, 패킷 크기=53157 바이트
2025/05/08 16:43:06 stream.go:166: 스냅샷 업데이트 완료: UUID=TEST2
2025/05/08 16:43:07 stream.go:143: 스냅샷 업데이트 시작: UUID=TEST2, 패킷 크기=52983 바이트
2025/05/08 16:43:07 stream.go:166: 스냅샷 업데이트 완료: UUID=TEST2
2025/05/08 16:43:08 stream.go:143: 스냅샷 업데이트 시작: UUID=TEST2, 패킷 크기=58878 바이트
2025/05/08 16:43:08 stream.go:166: 스냅샷 업데이트 완료: UUID=TEST2
2025/05/08 16:43:09 stream.go:143: 스냅샷 업데이트 시작: UUID=TEST2, 패킷 크기=58655 바이트
2025/05/08 16:43:09 stream.go:166: 스냅샷 업데이트 완료: UUID=TEST2
2025/05/08 16:43:10 stream.go:143: 스냅샷 업데이트 시작: UUID=TEST2, 패킷 크기=58436 바이트
2025/05/08 16:43:10 stream.go:166: 스냅샷 업데이트 완료: UUID=TEST2
2025/05/08 16:43:11 stream.go:143: 스냅샷 업데이트 시작: UUID=TEST2, 패킷 크기=58313 바이트
2025/05/08 16:43:11 stream.go:166: 스냅샷 업데이트 완료: UUID=TEST2
2025/05/08 16:43:12 stream.go:143: 스냅샷 업데이트 시작: UUID=TEST2, 패킷 크기=58775 바이트
2025/05/08 16:43:12 stream.go:166: 스냅샷 업데이트 완료: UUID=TEST2
2025/05/08 16:43:13 stream.go:143: 스냅샷 업데이트 시작: UUID=TEST2, 패킷 크기=58821 바이트
2025/05/08 16:43:13 stream.go:166: 스냅샷 업데이트 완료: UUID=TEST2
2025/05/08 16:43:14 stream.go:143: 스냅샷 업데이트 시작: UUID=TEST2, 패킷 크기=59082 바이트
2025/05/08 16:43:14 stream.go:166: 스냅샷 업데이트 완료: UUID=TEST2
2025/05/08 16:43:15 stream.go:143: 스냅샷 업데이트 시작: UUID=TEST2, 패킷 크기=58831 바이트
2025/05/08 16:43:15 stream.go:166: 스냅샷 업데이트 완료: UUID=TEST2
2025/05/08 16:43:16 stream.go:143: 스냅샷 업데이트 시작: UUID=TEST2, 패킷 크기=53055 바이트
2025/05/08 16:43:16 stream.go:166: 스냅샷 업데이트 완료: UUID=TEST2
2025/05/08 16:43:17 stream.go:143: 스냅샷 업데이트 시작: UUID=TEST2, 패킷 크기=52613 바이트
2025/05/08 16:43:17 stream.go:166: 스냅샷 업데이트 완료: UUID=TEST2
2025/05/08 16:43:18 stream.go:143: 스냅샷 업데이트 시작: UUID=TEST2, 패킷 크기=58360 바이트
2025/05/08 16:43:18 stream.go:166: 스냅샷 업데이트 완료: UUID=TEST2
2025/05/08 16:43:19 stream.go:143: 스냅샷 업데이트 시작: UUID=TEST2, 패킷 크기=58398 바이트
2025/05/08 16:43:19 stream.go:166: 스냅샷 업데이트 완료: UUID=TEST2
2025/05/08 16:43:20 stream.go:143: 스냅샷 업데이트 시작: UUID=TEST2, 패킷 크기=52686 바이트
2025/05/08 16:43:20 stream.go:166: 스냅샷 업데이트 완료: UUID=TEST2
2025/05/08 16:43:21 stream.go:143: 스냅샷 업데이트 시작: UUID=TEST2, 패킷 크기=52640 바이트
2025/05/08 16:43:21 stream.go:166: 스냅샷 업데이트 완료: UUID=TEST2
2025/05/08 16:43:22 stream.go:143: 스냅샷 업데이트 시작: UUID=TEST2, 패킷 크기=52344 바이트
2025/05/08 16:43:22 stream.go:166: 스냅샷 업데이트 완료: UUID=TEST2
2025/05/08 16:43:23 stream.go:143: 스냅샷 업데이트 시작: UUID=TEST2, 패킷 크기=52599 바이트
2025/05/08 16:43:23 stream.go:166: 스냅샷 업데이트 완료: UUID=TEST2
2025/05/08 16:43:24 stream.go:143: 스냅샷 업데이트 시작: UUID=TEST2, 패킷 크기=52363 바이트
2025/05/08 16:43:24 stream.go:166: 스냅샷 업데이트 완료: UUID=TEST2
2025/05/08 16:43:25 main.go:251: interrupt
2025/05/08 16:43:25 main.go:256: Exiting
2025/05/08 16:43:37 main.go:254: Server Start Awaiting Signal
2025/05/08 16:43:57 stream.go:229: Stream Try Connect TEST2
2025/05/08 16:43:57 adapter.go:61: Set ICEServers [stun:stun.l.google.com:19302]
2025/05/08 16:43:57 stream.go:171: 스냅샷 업데이트 시작: UUID=TEST2, 패킷 크기=58695 바이트
2025/05/08 16:43:57 stream.go:178: 새 스냅샷 생성: UUID=TEST2
2025/05/08 16:43:57 stream.go:194: 스냅샷 업데이트 완료: UUID=TEST2
2025/05/08 16:43:58 stream.go:171: 스냅샷 업데이트 시작: UUID=TEST2, 패킷 크기=58795 바이트
2025/05/08 16:43:58 stream.go:194: 스냅샷 업데이트 완료: UUID=TEST2
2025/05/08 16:43:59 stream.go:171: 스냅샷 업데이트 시작: UUID=TEST2, 패킷 크기=59048 바이트
2025/05/08 16:43:59 stream.go:194: 스냅샷 업데이트 완료: UUID=TEST2
2025/05/08 16:44:00 stream.go:171: 스냅샷 업데이트 시작: UUID=TEST2, 패킷 크기=59385 바이트
2025/05/08 16:44:00 stream.go:194: 스냅샷 업데이트 완료: UUID=TEST2
2025/05/08 16:44:01 stream.go:131: 스냅샷 요청: UUID=TEST2
2025/05/08 16:44:01 stream.go:153: 스냅샷 변환 시작: UUID=TEST2, 데이터 크기=59385 바이트
2025/05/08 16:44:01 stream.go:38: 스냅샷 캡처 시작: 패킷 크기=59385 바이트
2025/05/08 16:44:01 stream.go:91: 스냅샷 캡처 실패 (ffmpeg wait): exit status 234, stderr: ffmpeg version 7.1.1 Copyright (c) 2000-2025 the FFmpeg developers
  built with Apple clang version 16.0.0 (clang-1600.0.26.6)
  configuration: --prefix=/opt/homebrew/Cellar/ffmpeg/7.1.1_2 --enable-shared --enable-pthreads --enable-version3 --cc=clang --host-cflags= --host-ldflags='-Wl,-ld_classic' --enable-ffplay --enable-gnutls --enable-gpl --enable-libaom --enable-libaribb24 --enable-libbluray --enable-libdav1d --enable-libharfbuzz --enable-libjxl --enable-libmp3lame --enable-libopus --enable-librav1e --enable-librist --enable-librubberband --enable-libsnappy --enable-libsrt --enable-libssh --enable-libsvtav1 --enable-libtesseract --enable-libtheora --enable-libvidstab --enable-libvmaf --enable-libvorbis --enable-libvpx --enable-libwebp --enable-libx264 --enable-libx265 --enable-libxml2 --enable-libxvid --enable-lzma --enable-libfontconfig --enable-libfreetype --enable-frei0r --enable-libass --enable-libopencore-amrnb --enable-libopencore-amrwb --enable-libopenjpeg --enable-libspeex --enable-libsoxr --enable-libzmq --enable-libzimg --disable-libjack --disable-indev=jack --enable-videotoolbox --enable-audiotoolbox --enable-neon
  libavutil      59. 39.100 / 59. 39.100
  libavcodec     61. 19.101 / 61. 19.101
  libavformat    61.  7.100 / 61.  7.100
  libavdevice    61.  3.100 / 61.  3.100
  libavfilter    10.  4.100 / 10.  4.100
  libswscale      8.  3.100 /  8.  3.100
  libswresample   5.  3.100 /  5.  3.100
  libpostproc    58.  3.100 / 58.  3.100
[h264 @ 0x14e806680] missing picture in access unit with size 59389
[h264 @ 0x14e806680] no frame!
[h264 @ 0x14ea04940] Could not find codec parameters for stream 0 (Video: h264, none): unspecified size
Consider increasing the value for the 'analyzeduration' (1000000) and 'probesize' (1000000) options
Input #0, h264, from 'pipe:0':
  Duration: N/A, bitrate: N/A
  Stream #0:0: Video: h264, none, 25 fps, 1200k tbr, 1200k tbn
Option hwaccel (use HW accelerated decoding) cannot be applied to output url pipe:1 -- you are trying to apply an input option to an output file or vice versa. Move this option before the file it belongs to.
Error parsing options for output file pipe:1.
Error opening output files: Invalid argument
2025/05/08 16:44:01 stream.go:156: 스냅샷 변환 실패: UUID=TEST2, 에러=ffmpeg wait error: exit status 234, stderr: ffmpeg version 7.1.1 Copyright (c) 2000-2025 the FFmpeg developers
  built with Apple clang version 16.0.0 (clang-1600.0.26.6)
  configuration: --prefix=/opt/homebrew/Cellar/ffmpeg/7.1.1_2 --enable-shared --enable-pthreads --enable-version3 --cc=clang --host-cflags= --host-ldflags='-Wl,-ld_classic' --enable-ffplay --enable-gnutls --enable-gpl --enable-libaom --enable-libaribb24 --enable-libbluray --enable-libdav1d --enable-libharfbuzz --enable-libjxl --enable-libmp3lame --enable-libopus --enable-librav1e --enable-librist --enable-librubberband --enable-libsnappy --enable-libsrt --enable-libssh --enable-libsvtav1 --enable-libtesseract --enable-libtheora --enable-libvidstab --enable-libvmaf --enable-libvorbis --enable-libvpx --enable-libwebp --enable-libx264 --enable-libx265 --enable-libxml2 --enable-libxvid --enable-lzma --enable-libfontconfig --enable-libfreetype --enable-frei0r --enable-libass --enable-libopencore-amrnb --enable-libopencore-amrwb --enable-libopenjpeg --enable-libspeex --enable-libsoxr --enable-libzmq --enable-libzimg --disable-libjack --disable-indev=jack --enable-videotoolbox --enable-audiotoolbox --enable-neon
  libavutil      59. 39.100 / 59. 39.100
  libavcodec     61. 19.101 / 61. 19.101
  libavformat    61.  7.100 / 61.  7.100
  libavdevice    61.  3.100 / 61.  3.100
  libavfilter    10.  4.100 / 10.  4.100
  libswscale      8.  3.100 /  8.  3.100
  libswresample   5.  3.100 /  5.  3.100
  libpostproc    58.  3.100 / 58.  3.100
[h264 @ 0x14e806680] missing picture in access unit with size 59389
[h264 @ 0x14e806680] no frame!
[h264 @ 0x14ea04940] Could not find codec parameters for stream 0 (Video: h264, none): unspecified size
Consider increasing the value for the 'analyzeduration' (1000000) and 'probesize' (1000000) options
Input #0, h264, from 'pipe:0':
  Duration: N/A, bitrate: N/A
  Stream #0:0: Video: h264, none, 25 fps, 1200k tbr, 1200k tbn
Option hwaccel (use HW accelerated decoding) cannot be applied to output url pipe:1 -- you are trying to apply an input option to an output file or vice versa. Move this option before the file it belongs to.
Error parsing options for output file pipe:1.
Error opening output files: Invalid argument
2025/05/08 16:44:01 stream.go:171: 스냅샷 업데이트 시작: UUID=TEST2, 패킷 크기=53764 바이트
2025/05/08 16:44:01 stream.go:194: 스냅샷 업데이트 완료: UUID=TEST2
2025/05/08 16:44:02 stream.go:171: 스냅샷 업데이트 시작: UUID=TEST2, 패킷 크기=53840 바이트
2025/05/08 16:44:02 stream.go:194: 스냅샷 업데이트 완료: UUID=TEST2
2025/05/08 16:44:03 stream.go:171: 스냅샷 업데이트 시작: UUID=TEST2, 패킷 크기=53740 바이트
2025/05/08 16:44:03 stream.go:194: 스냅샷 업데이트 완료: UUID=TEST2
2025/05/08 16:44:04 stream.go:171: 스냅샷 업데이트 시작: UUID=TEST2, 패킷 크기=53505 바이트
2025/05/08 16:44:04 stream.go:194: 스냅샷 업데이트 완료: UUID=TEST2
2025/05/08 16:44:05 stream.go:171: 스냅샷 업데이트 시작: UUID=TEST2, 패킷 크기=59330 바이트
2025/05/08 16:44:05 stream.go:194: 스냅샷 업데이트 완료: UUID=TEST2
2025/05/08 16:44:06 stream.go:171: 스냅샷 업데이트 시작: UUID=TEST2, 패킷 크기=59149 바이트
2025/05/08 16:44:06 stream.go:194: 스냅샷 업데이트 완료: UUID=TEST2
2025/05/08 16:44:06 main.go:251: interrupt
2025/05/08 16:44:06 main.go:256: Exiting
2025/05/08 16:46:15 main.go:254: Server Start Awaiting Signal
2025/05/08 16:46:19 stream.go:238: Stream Try Connect TEST2
2025/05/08 16:46:19 adapter.go:61: Set ICEServers [stun:stun.l.google.com:19302]
2025/05/08 16:46:20 stream.go:180: 스냅샷 업데이트 시작: UUID=TEST2, 패킷 크기=63518 바이트
2025/05/08 16:46:20 stream.go:187: 새 스냅샷 생성: UUID=TEST2
2025/05/08 16:46:20 stream.go:203: 스냅샷 업데이트 완료: UUID=TEST2
2025/05/08 16:46:21 stream.go:180: 스냅샷 업데이트 시작: UUID=TEST2, 패킷 크기=63770 바이트
2025/05/08 16:46:21 stream.go:203: 스냅샷 업데이트 완료: UUID=TEST2
2025/05/08 16:46:22 stream.go:180: 스냅샷 업데이트 시작: UUID=TEST2, 패킷 크기=63867 바이트
2025/05/08 16:46:22 stream.go:203: 스냅샷 업데이트 완료: UUID=TEST2
2025/05/08 16:46:23 stream.go:180: 스냅샷 업데이트 시작: UUID=TEST2, 패킷 크기=64119 바이트
2025/05/08 16:46:23 stream.go:203: 스냅샷 업데이트 완료: UUID=TEST2
2025/05/08 16:46:24 stream.go:180: 스냅샷 업데이트 시작: UUID=TEST2, 패킷 크기=57852 바이트
2025/05/08 16:46:24 stream.go:203: 스냅샷 업데이트 완료: UUID=TEST2
2025/05/08 16:46:25 stream.go:180: 스냅샷 업데이트 시작: UUID=TEST2, 패킷 크기=57425 바이트
2025/05/08 16:46:25 stream.go:203: 스냅샷 업데이트 완료: UUID=TEST2
2025/05/08 16:46:26 stream.go:180: 스냅샷 업데이트 시작: UUID=TEST2, 패킷 크기=57775 바이트
2025/05/08 16:46:26 stream.go:203: 스냅샷 업데이트 완료: UUID=TEST2
2025/05/08 16:46:27 stream.go:180: 스냅샷 업데이트 시작: UUID=TEST2, 패킷 크기=57699 바이트
2025/05/08 16:46:27 stream.go:203: 스냅샷 업데이트 완료: UUID=TEST2
2025/05/08 16:46:28 stream.go:180: 스냅샷 업데이트 시작: UUID=TEST2, 패킷 크기=57946 바이트
2025/05/08 16:46:28 stream.go:203: 스냅샷 업데이트 완료: UUID=TEST2
2025/05/08 16:46:29 stream.go:180: 스냅샷 업데이트 시작: UUID=TEST2, 패킷 크기=57904 바이트
2025/05/08 16:46:29 stream.go:203: 스냅샷 업데이트 완료: UUID=TEST2
2025/05/08 16:46:30 stream.go:180: 스냅샷 업데이트 시작: UUID=TEST2, 패킷 크기=57816 바이트
2025/05/08 16:46:30 stream.go:203: 스냅샷 업데이트 완료: UUID=TEST2
2025/05/08 16:46:31 stream.go:180: 스냅샷 업데이트 시작: UUID=TEST2, 패킷 크기=57688 바이트
2025/05/08 16:46:31 stream.go:203: 스냅샷 업데이트 완료: UUID=TEST2
2025/05/08 16:46:32 stream.go:180: 스냅샷 업데이트 시작: UUID=TEST2, 패킷 크기=57515 바이트
2025/05/08 16:46:32 stream.go:203: 스냅샷 업데이트 완료: UUID=TEST2
2025/05/08 16:46:33 stream.go:180: 스냅샷 업데이트 시작: UUID=TEST2, 패킷 크기=63798 바이트
2025/05/08 16:46:33 stream.go:203: 스냅샷 업데이트 완료: UUID=TEST2
2025/05/08 16:46:34 stream.go:180: 스냅샷 업데이트 시작: UUID=TEST2, 패킷 크기=63926 바이트
2025/05/08 16:46:34 stream.go:203: 스냅샷 업데이트 완료: UUID=TEST2
2025/05/08 16:46:35 stream.go:180: 스냅샷 업데이트 시작: UUID=TEST2, 패킷 크기=63586 바이트
2025/05/08 16:46:35 stream.go:203: 스냅샷 업데이트 완료: UUID=TEST2
2025/05/08 16:46:36 stream.go:180: 스냅샷 업데이트 시작: UUID=TEST2, 패킷 크기=63403 바이트
2025/05/08 16:46:36 stream.go:203: 스냅샷 업데이트 완료: UUID=TEST2
2025/05/08 16:46:37 stream.go:180: 스냅샷 업데이트 시작: UUID=TEST2, 패킷 크기=63857 바이트
2025/05/08 16:46:37 stream.go:203: 스냅샷 업데이트 완료: UUID=TEST2
2025/05/08 16:46:38 stream.go:180: 스냅샷 업데이트 시작: UUID=TEST2, 패킷 크기=64218 바이트
2025/05/08 16:46:38 stream.go:203: 스냅샷 업데이트 완료: UUID=TEST2
2025/05/08 16:46:39 stream.go:180: 스냅샷 업데이트 시작: UUID=TEST2, 패킷 크기=63835 바이트
2025/05/08 16:46:39 stream.go:203: 스냅샷 업데이트 완료: UUID=TEST2
2025/05/08 16:46:39 stream.go:140: 스냅샷 요청: UUID=TEST2
2025/05/08 16:46:39 stream.go:162: 스냅샷 변환 시작: UUID=TEST2, 데이터 크기=63835 바이트
2025/05/08 16:46:39 stream.go:39: 스냅샷 캡처 시작: 패킷 크기=63835 바이트
2025/05/08 16:46:39 stream.go:46: 테스트 파일 저장됨: /tmp/test_1746690399962733000.h264
2025/05/08 16:46:40 stream.go:100: 스냅샷 캡처 실패 (ffmpeg wait): exit status 234, stderr: ffmpeg version 7.1.1 Copyright (c) 2000-2025 the FFmpeg developers
  built with Apple clang version 16.0.0 (clang-1600.0.26.6)
  configuration: --prefix=/opt/homebrew/Cellar/ffmpeg/7.1.1_2 --enable-shared --enable-pthreads --enable-version3 --cc=clang --host-cflags= --host-ldflags='-Wl,-ld_classic' --enable-ffplay --enable-gnutls --enable-gpl --enable-libaom --enable-libaribb24 --enable-libbluray --enable-libdav1d --enable-libharfbuzz --enable-libjxl --enable-libmp3lame --enable-libopus --enable-librav1e --enable-librist --enable-librubberband --enable-libsnappy --enable-libsrt --enable-libssh --enable-libsvtav1 --enable-libtesseract --enable-libtheora --enable-libvidstab --enable-libvmaf --enable-libvorbis --enable-libvpx --enable-libwebp --enable-libx264 --enable-libx265 --enable-libxml2 --enable-libxvid --enable-lzma --enable-libfontconfig --enable-libfreetype --enable-frei0r --enable-libass --enable-libopencore-amrnb --enable-libopencore-amrwb --enable-libopenjpeg --enable-libspeex --enable-libsoxr --enable-libzmq --enable-libzimg --disable-libjack --disable-indev=jack --enable-videotoolbox --enable-audiotoolbox --enable-neon
  libavutil      59. 39.100 / 59. 39.100
  libavcodec     61. 19.101 / 61. 19.101
  libavformat    61.  7.100 / 61.  7.100
  libavdevice    61.  3.100 / 61.  3.100
  libavfilter    10.  4.100 / 10.  4.100
  libswscale      8.  3.100 /  8.  3.100
  libswresample   5.  3.100 /  5.  3.100
  libpostproc    58.  3.100 / 58.  3.100
[h264 @ 0x128f23df0] missing picture in access unit with size 63839
[h264 @ 0x128f23df0] no frame!
[h264 @ 0x12a2046c0] Could not find codec parameters for stream 0 (Video: h264, none): unspecified size
Consider increasing the value for the 'analyzeduration' (1000000) and 'probesize' (1000000) options
Input #0, h264, from 'pipe:0':
  Duration: N/A, bitrate: N/A
  Stream #0:0: Video: h264, none, 25 fps, 1200k tbr, 1200k tbn
Option hwaccel (use HW accelerated decoding) cannot be applied to output url pipe:1 -- you are trying to apply an input option to an output file or vice versa. Move this option before the file it belongs to.
Error parsing options for output file pipe:1.
Error opening output files: Invalid argument
2025/05/08 16:46:40 stream.go:165: 스냅샷 변환 실패: UUID=TEST2, 에러=ffmpeg wait error: exit status 234, stderr: ffmpeg version 7.1.1 Copyright (c) 2000-2025 the FFmpeg developers
  built with Apple clang version 16.0.0 (clang-1600.0.26.6)
  configuration: --prefix=/opt/homebrew/Cellar/ffmpeg/7.1.1_2 --enable-shared --enable-pthreads --enable-version3 --cc=clang --host-cflags= --host-ldflags='-Wl,-ld_classic' --enable-ffplay --enable-gnutls --enable-gpl --enable-libaom --enable-libaribb24 --enable-libbluray --enable-libdav1d --enable-libharfbuzz --enable-libjxl --enable-libmp3lame --enable-libopus --enable-librav1e --enable-librist --enable-librubberband --enable-libsnappy --enable-libsrt --enable-libssh --enable-libsvtav1 --enable-libtesseract --enable-libtheora --enable-libvidstab --enable-libvmaf --enable-libvorbis --enable-libvpx --enable-libwebp --enable-libx264 --enable-libx265 --enable-libxml2 --enable-libxvid --enable-lzma --enable-libfontconfig --enable-libfreetype --enable-frei0r --enable-libass --enable-libopencore-amrnb --enable-libopencore-amrwb --enable-libopenjpeg --enable-libspeex --enable-libsoxr --enable-libzmq --enable-libzimg --disable-libjack --disable-indev=jack --enable-videotoolbox --enable-audiotoolbox --enable-neon
  libavutil      59. 39.100 / 59. 39.100
  libavcodec     61. 19.101 / 61. 19.101
  libavformat    61.  7.100 / 61.  7.100
  libavdevice    61.  3.100 / 61.  3.100
  libavfilter    10.  4.100 / 10.  4.100
  libswscale      8.  3.100 /  8.  3.100
  libswresample   5.  3.100 /  5.  3.100
  libpostproc    58.  3.100 / 58.  3.100
[h264 @ 0x128f23df0] missing picture in access unit with size 63839
[h264 @ 0x128f23df0] no frame!
[h264 @ 0x12a2046c0] Could not find codec parameters for stream 0 (Video: h264, none): unspecified size
Consider increasing the value for the 'analyzeduration' (1000000) and 'probesize' (1000000) options
Input #0, h264, from 'pipe:0':
  Duration: N/A, bitrate: N/A
  Stream #0:0: Video: h264, none, 25 fps, 1200k tbr, 1200k tbn
Option hwaccel (use HW accelerated decoding) cannot be applied to output url pipe:1 -- you are trying to apply an input option to an output file or vice versa. Move this option before the file it belongs to.
Error parsing options for output file pipe:1.
Error opening output files: Invalid argument
2025/05/08 16:46:40 stream.go:180: 스냅샷 업데이트 시작: UUID=TEST2, 패킷 크기=58105 바이트
2025/05/08 16:46:40 stream.go:203: 스냅샷 업데이트 완료: UUID=TEST2
2025/05/08 16:46:41 stream.go:180: 스냅샷 업데이트 시작: UUID=TEST2, 패킷 크기=58137 바이트
2025/05/08 16:46:41 stream.go:203: 스냅샷 업데이트 완료: UUID=TEST2
2025/05/08 16:46:42 stream.go:180: 스냅샷 업데이트 시작: UUID=TEST2, 패킷 크기=58323 바이트
2025/05/08 16:46:42 stream.go:203: 스냅샷 업데이트 완료: UUID=TEST2
2025/05/08 16:46:43 stream.go:180: 스냅샷 업데이트 시작: UUID=TEST2, 패킷 크기=52998 바이트
2025/05/08 16:46:43 stream.go:203: 스냅샷 업데이트 완료: UUID=TEST2
2025/05/08 16:46:43 main.go:251: interrupt
2025/05/08 16:46:43 main.go:256: Exiting
2025/05/08 16:48:08 main.go:254: Server Start Awaiting Signal
2025/05/08 16:48:16 stream.go:230: Stream Try Connect TEST2
2025/05/08 16:48:16 adapter.go:61: Set ICEServers [stun:stun.l.google.com:19302]
2025/05/08 16:48:16 stream.go:172: 스냅샷 업데이트 시작: UUID=TEST2, 패킷 크기=52870 바이트
2025/05/08 16:48:16 stream.go:179: 새 스냅샷 생성: UUID=TEST2
2025/05/08 16:48:16 stream.go:195: 스냅샷 업데이트 완료: UUID=TEST2
2025/05/08 16:48:17 stream.go:172: 스냅샷 업데이트 시작: UUID=TEST2, 패킷 크기=52360 바이트
2025/05/08 16:48:17 stream.go:195: 스냅샷 업데이트 완료: UUID=TEST2
2025/05/08 16:48:18 stream.go:172: 스냅샷 업데이트 시작: UUID=TEST2, 패킷 크기=52484 바이트
2025/05/08 16:48:18 stream.go:195: 스냅샷 업데이트 완료: UUID=TEST2
2025/05/08 16:48:19 stream.go:172: 스냅샷 업데이트 시작: UUID=TEST2, 패킷 크기=52596 바이트
2025/05/08 16:48:19 stream.go:195: 스냅샷 업데이트 완료: UUID=TEST2
2025/05/08 16:48:20 stream.go:132: 스냅샷 요청: UUID=TEST2
2025/05/08 16:48:20 stream.go:154: 스냅샷 변환 시작: UUID=TEST2, 데이터 크기=52596 바이트
2025/05/08 16:48:20 stream.go:39: 스냅샷 캡처 시작: 패킷 크기=52596 바이트
2025/05/08 16:48:20 stream.go:58: IDR 프레임을 찾을 수 없음
2025/05/08 16:48:20 stream.go:157: 스냅샷 변환 실패: UUID=TEST2, 에러=no IDR frame found
2025/05/08 16:48:20 stream.go:172: 스냅샷 업데이트 시작: UUID=TEST2, 패킷 크기=53166 바이트
2025/05/08 16:48:20 stream.go:195: 스냅샷 업데이트 완료: UUID=TEST2
2025/05/08 16:48:21 stream.go:172: 스냅샷 업데이트 시작: UUID=TEST2, 패킷 크기=52363 바이트
2025/05/08 16:48:21 stream.go:195: 스냅샷 업데이트 완료: UUID=TEST2
2025/05/08 16:48:22 stream.go:172: 스냅샷 업데이트 시작: UUID=TEST2, 패킷 크기=52610 바이트
2025/05/08 16:48:22 stream.go:195: 스냅샷 업데이트 완료: UUID=TEST2
2025/05/08 16:48:23 stream.go:172: 스냅샷 업데이트 시작: UUID=TEST2, 패킷 크기=52109 바이트
2025/05/08 16:48:23 stream.go:195: 스냅샷 업데이트 완료: UUID=TEST2
2025/05/08 16:48:24 stream.go:172: 스냅샷 업데이트 시작: UUID=TEST2, 패킷 크기=57500 바이트
2025/05/08 16:48:24 stream.go:195: 스냅샷 업데이트 완료: UUID=TEST2
2025/05/08 16:48:25 stream.go:172: 스냅샷 업데이트 시작: UUID=TEST2, 패킷 크기=57511 바이트
2025/05/08 16:48:25 stream.go:195: 스냅샷 업데이트 완료: UUID=TEST2
2025/05/08 16:48:26 stream.go:172: 스냅샷 업데이트 시작: UUID=TEST2, 패킷 크기=57248 바이트
2025/05/08 16:48:26 stream.go:195: 스냅샷 업데이트 완료: UUID=TEST2
2025/05/08 16:48:27 stream.go:172: 스냅샷 업데이트 시작: UUID=TEST2, 패킷 크기=57378 바이트
2025/05/08 16:48:27 stream.go:195: 스냅샷 업데이트 완료: UUID=TEST2
2025/05/08 16:48:28 stream.go:172: 스냅샷 업데이트 시작: UUID=TEST2, 패킷 크기=57329 바이트
2025/05/08 16:48:28 stream.go:195: 스냅샷 업데이트 완료: UUID=TEST2
2025/05/08 16:48:29 stream.go:172: 스냅샷 업데이트 시작: UUID=TEST2, 패킷 크기=57010 바이트
2025/05/08 16:48:29 stream.go:195: 스냅샷 업데이트 완료: UUID=TEST2
2025/05/08 16:48:30 stream.go:172: 스냅샷 업데이트 시작: UUID=TEST2, 패킷 크기=57541 바이트
2025/05/08 16:48:30 stream.go:195: 스냅샷 업데이트 완료: UUID=TEST2
2025/05/08 16:48:31 main.go:251: interrupt
2025/05/08 16:48:31 main.go:256: Exiting
2025/05/08 16:49:11 main.go:254: Server Start Awaiting Signal
2025/05/08 16:49:11 stream.go:261: Stream Try Connect TEST2
2025/05/08 16:49:11 adapter.go:61: Set ICEServers [stun:stun.l.google.com:19302]
2025/05/08 16:49:12 stream.go:203: 스냅샷 업데이트 시작: UUID=TEST2, 패킷 크기=47172 바이트
2025/05/08 16:49:12 stream.go:210: 새 스냅샷 생성: UUID=TEST2
2025/05/08 16:49:12 stream.go:226: 스냅샷 업데이트 완료: UUID=TEST2
2025/05/08 16:49:13 stream.go:203: 스냅샷 업데이트 시작: UUID=TEST2, 패킷 크기=52568 바이트
2025/05/08 16:49:13 stream.go:226: 스냅샷 업데이트 완료: UUID=TEST2
2025/05/08 16:49:14 stream.go:203: 스냅샷 업데이트 시작: UUID=TEST2, 패킷 크기=52253 바이트
2025/05/08 16:49:14 stream.go:226: 스냅샷 업데이트 완료: UUID=TEST2
2025/05/08 16:49:15 stream.go:203: 스냅샷 업데이트 시작: UUID=TEST2, 패킷 크기=51326 바이트
2025/05/08 16:49:15 stream.go:226: 스냅샷 업데이트 완료: UUID=TEST2
2025/05/08 16:49:16 stream.go:203: 스냅샷 업데이트 시작: UUID=TEST2, 패킷 크기=57141 바이트
2025/05/08 16:49:16 stream.go:226: 스냅샷 업데이트 완료: UUID=TEST2
2025/05/08 16:49:16 stream.go:163: 스냅샷 요청: UUID=TEST2
2025/05/08 16:49:16 stream.go:185: 스냅샷 변환 시작: UUID=TEST2, 데이터 크기=57141 바이트
2025/05/08 16:49:16 stream.go:39: 스냅샷 캡처 시작: 패킷 크기=57141 바이트
2025/05/08 16:49:16 stream.go:145: 마지막 NALU 발견: 크기=57141 바이트, 첫 바이트=0x00
2025/05/08 16:49:16 stream.go:150: 총 1개의 NALU 발견
2025/05/08 16:49:16 stream.go:53: NALU[0] 타입: 0
2025/05/08 16:49:16 stream.go:63: IDR 프레임을 찾을 수 없음
2025/05/08 16:49:16 stream.go:188: 스냅샷 변환 실패: UUID=TEST2, 에러=no IDR frame found
2025/05/08 16:49:17 stream.go:203: 스냅샷 업데이트 시작: UUID=TEST2, 패킷 크기=51649 바이트
2025/05/08 16:49:17 stream.go:226: 스냅샷 업데이트 완료: UUID=TEST2
2025/05/08 16:49:18 stream.go:203: 스냅샷 업데이트 시작: UUID=TEST2, 패킷 크기=50896 바이트
2025/05/08 16:49:18 stream.go:226: 스냅샷 업데이트 완료: UUID=TEST2
2025/05/08 16:49:19 stream.go:203: 스냅샷 업데이트 시작: UUID=TEST2, 패킷 크기=46293 바이트
2025/05/08 16:49:19 stream.go:226: 스냅샷 업데이트 완료: UUID=TEST2
2025/05/08 16:49:20 stream.go:203: 스냅샷 업데이트 시작: UUID=TEST2, 패킷 크기=51364 바이트
2025/05/08 16:49:20 stream.go:226: 스냅샷 업데이트 완료: UUID=TEST2
2025/05/08 16:49:21 stream.go:203: 스냅샷 업데이트 시작: UUID=TEST2, 패킷 크기=51379 바이트
2025/05/08 16:49:21 stream.go:226: 스냅샷 업데이트 완료: UUID=TEST2
2025/05/08 16:49:22 stream.go:203: 스냅샷 업데이트 시작: UUID=TEST2, 패킷 크기=51934 바이트
2025/05/08 16:49:22 stream.go:226: 스냅샷 업데이트 완료: UUID=TEST2
2025/05/08 16:49:23 stream.go:203: 스냅샷 업데이트 시작: UUID=TEST2, 패킷 크기=51828 바이트
2025/05/08 16:49:23 stream.go:226: 스냅샷 업데이트 완료: UUID=TEST2
2025/05/08 16:49:24 stream.go:203: 스냅샷 업데이트 시작: UUID=TEST2, 패킷 크기=52018 바이트
2025/05/08 16:49:24 stream.go:226: 스냅샷 업데이트 완료: UUID=TEST2
2025/05/08 16:49:25 stream.go:203: 스냅샷 업데이트 시작: UUID=TEST2, 패킷 크기=52201 바이트
2025/05/08 16:49:25 stream.go:226: 스냅샷 업데이트 완료: UUID=TEST2
2025/05/08 16:49:26 stream.go:203: 스냅샷 업데이트 시작: UUID=TEST2, 패킷 크기=52254 바이트
2025/05/08 16:49:26 stream.go:226: 스냅샷 업데이트 완료: UUID=TEST2
2025/05/08 16:49:27 stream.go:203: 스냅샷 업데이트 시작: UUID=TEST2, 패킷 크기=52699 바이트
2025/05/08 16:49:27 stream.go:226: 스냅샷 업데이트 완료: UUID=TEST2
2025/05/08 16:49:28 stream.go:203: 스냅샷 업데이트 시작: UUID=TEST2, 패킷 크기=52300 바이트
2025/05/08 16:49:28 stream.go:226: 스냅샷 업데이트 완료: UUID=TEST2
2025/05/08 16:49:29 stream.go:203: 스냅샷 업데이트 시작: UUID=TEST2, 패킷 크기=52374 바이트
2025/05/08 16:49:29 stream.go:226: 스냅샷 업데이트 완료: UUID=TEST2
2025/05/08 16:49:30 stream.go:203: 스냅샷 업데이트 시작: UUID=TEST2, 패킷 크기=52185 바이트
2025/05/08 16:49:30 stream.go:226: 스냅샷 업데이트 완료: UUID=TEST2
2025/05/08 16:49:31 stream.go:203: 스냅샷 업데이트 시작: UUID=TEST2, 패킷 크기=57915 바이트
2025/05/08 16:49:31 stream.go:226: 스냅샷 업데이트 완료: UUID=TEST2
2025/05/08 16:49:32 stream.go:203: 스냅샷 업데이트 시작: UUID=TEST2, 패킷 크기=51855 바이트
2025/05/08 16:49:32 stream.go:226: 스냅샷 업데이트 완료: UUID=TEST2
2025/05/08 16:49:33 stream.go:203: 스냅샷 업데이트 시작: UUID=TEST2, 패킷 크기=52507 바이트
2025/05/08 16:49:33 stream.go:226: 스냅샷 업데이트 완료: UUID=TEST2
2025/05/08 16:49:34 stream.go:203: 스냅샷 업데이트 시작: UUID=TEST2, 패킷 크기=52349 바이트
2025/05/08 16:49:34 stream.go:226: 스냅샷 업데이트 완료: UUID=TEST2
2025/05/08 16:49:35 stream.go:203: 스냅샷 업데이트 시작: UUID=TEST2, 패킷 크기=51920 바이트
2025/05/08 16:49:35 stream.go:226: 스냅샷 업데이트 완료: UUID=TEST2
2025/05/08 16:49:36 stream.go:203: 스냅샷 업데이트 시작: UUID=TEST2, 패킷 크기=52118 바이트
2025/05/08 16:49:36 stream.go:226: 스냅샷 업데이트 완료: UUID=TEST2
2025/05/08 16:49:37 stream.go:203: 스냅샷 업데이트 시작: UUID=TEST2, 패킷 크기=57382 바이트
2025/05/08 16:49:37 stream.go:226: 스냅샷 업데이트 완료: UUID=TEST2
2025/05/08 16:49:38 stream.go:203: 스냅샷 업데이트 시작: UUID=TEST2, 패킷 크기=57810 바이트
2025/05/08 16:49:38 stream.go:226: 스냅샷 업데이트 완료: UUID=TEST2
2025/05/08 16:49:39 stream.go:203: 스냅샷 업데이트 시작: UUID=TEST2, 패킷 크기=57750 바이트
2025/05/08 16:49:39 stream.go:226: 스냅샷 업데이트 완료: UUID=TEST2
2025/05/08 16:49:40 stream.go:203: 스냅샷 업데이트 시작: UUID=TEST2, 패킷 크기=51639 바이트
2025/05/08 16:49:40 stream.go:226: 스냅샷 업데이트 완료: UUID=TEST2
2025/05/08 16:49:41 stream.go:203: 스냅샷 업데이트 시작: UUID=TEST2, 패킷 크기=57024 바이트
2025/05/08 16:49:41 stream.go:226: 스냅샷 업데이트 완료: UUID=TEST2
2025/05/08 16:49:42 stream.go:203: 스냅샷 업데이트 시작: UUID=TEST2, 패킷 크기=56632 바이트
2025/05/08 16:49:42 stream.go:226: 스냅샷 업데이트 완료: UUID=TEST2
2025/05/08 16:49:43 stream.go:203: 스냅샷 업데이트 시작: UUID=TEST2, 패킷 크기=56659 바이트
2025/05/08 16:49:43 stream.go:226: 스냅샷 업데이트 완료: UUID=TEST2
2025/05/08 16:49:44 stream.go:203: 스냅샷 업데이트 시작: UUID=TEST2, 패킷 크기=56598 바이트
2025/05/08 16:49:44 stream.go:226: 스냅샷 업데이트 완료: UUID=TEST2
2025/05/08 16:49:45 stream.go:203: 스냅샷 업데이트 시작: UUID=TEST2, 패킷 크기=50618 바이트
2025/05/08 16:49:45 stream.go:226: 스냅샷 업데이트 완료: UUID=TEST2
2025/05/08 16:49:46 stream.go:203: 스냅샷 업데이트 시작: UUID=TEST2, 패킷 크기=46240 바이트
2025/05/08 16:49:46 stream.go:226: 스냅샷 업데이트 완료: UUID=TEST2
2025/05/08 16:49:47 stream.go:203: 스냅샷 업데이트 시작: UUID=TEST2, 패킷 크기=46602 바이트
2025/05/08 16:49:47 stream.go:226: 스냅샷 업데이트 완료: UUID=TEST2
2025/05/08 16:49:48 stream.go:203: 스냅샷 업데이트 시작: UUID=TEST2, 패킷 크기=51286 바이트
2025/05/08 16:49:48 stream.go:226: 스냅샷 업데이트 완료: UUID=TEST2
2025/05/08 16:49:49 stream.go:203: 스냅샷 업데이트 시작: UUID=TEST2, 패킷 크기=56633 바이트
2025/05/08 16:49:49 stream.go:226: 스냅샷 업데이트 완료: UUID=TEST2
2025/05/08 16:49:50 stream.go:203: 스냅샷 업데이트 시작: UUID=TEST2, 패킷 크기=57094 바이트
2025/05/08 16:49:50 stream.go:226: 스냅샷 업데이트 완료: UUID=TEST2
2025/05/08 16:49:51 stream.go:203: 스냅샷 업데이트 시작: UUID=TEST2, 패킷 크기=56739 바이트
2025/05/08 16:49:51 stream.go:226: 스냅샷 업데이트 완료: UUID=TEST2
2025/05/08 16:49:52 stream.go:203: 스냅샷 업데이트 시작: UUID=TEST2, 패킷 크기=57219 바이트
2025/05/08 16:49:52 stream.go:226: 스냅샷 업데이트 완료: UUID=TEST2
2025/05/08 16:49:53 main.go:251: interrupt
2025/05/08 16:49:53 main.go:256: Exiting
2025/05/08 16:50:05 main.go:254: Server Start Awaiting Signal
2025/05/08 16:50:06 stream.go:272: Stream Try Connect TEST2
2025/05/08 16:50:06 adapter.go:61: Set ICEServers [stun:stun.l.google.com:19302]
2025/05/08 16:50:09 stream.go:214: 스냅샷 업데이트 시작: UUID=TEST2, 패킷 크기=51029 바이트
2025/05/08 16:50:09 stream.go:221: 새 스냅샷 생성: UUID=TEST2
2025/05/08 16:50:09 stream.go:237: 스냅샷 업데이트 완료: UUID=TEST2
2025/05/08 16:50:10 stream.go:174: 스냅샷 요청: UUID=TEST2
2025/05/08 16:50:10 stream.go:196: 스냅샷 변환 시작: UUID=TEST2, 데이터 크기=51029 바이트
2025/05/08 16:50:10 stream.go:39: 스냅샷 캡처 시작: 패킷 크기=51029 바이트
2025/05/08 16:50:10 stream.go:42: 패킷 데이터 시작: 0000c75165b800006890000027fa9608
2025/05/08 16:50:10 stream.go:148: 마지막 NALU 발견: 크기=51029 바이트, 첫 바이트=0x00
2025/05/08 16:50:10 stream.go:153: 총 1개의 NALU 발견
2025/05/08 16:50:10 stream.go:56: NALU[0] 타입: 0, 크기: 51029 바이트
2025/05/08 16:50:10 stream.go:66: IDR 프레임을 찾을 수 없음
2025/05/08 16:50:10 stream.go:199: 스냅샷 변환 실패: UUID=TEST2, 에러=no IDR frame found
2025/05/08 16:50:10 stream.go:214: 스냅샷 업데이트 시작: UUID=TEST2, 패킷 크기=51269 바이트
2025/05/08 16:50:10 stream.go:237: 스냅샷 업데이트 완료: UUID=TEST2
2025/05/08 16:50:11 stream.go:214: 스냅샷 업데이트 시작: UUID=TEST2, 패킷 크기=56474 바이트
2025/05/08 16:50:11 stream.go:237: 스냅샷 업데이트 완료: UUID=TEST2
2025/05/08 16:50:12 stream.go:214: 스냅샷 업데이트 시작: UUID=TEST2, 패킷 크기=56962 바이트
2025/05/08 16:50:12 stream.go:237: 스냅샷 업데이트 완료: UUID=TEST2
2025/05/08 16:50:12 stream.go:174: 스냅샷 요청: UUID=TEST2
2025/05/08 16:50:12 stream.go:196: 스냅샷 변환 시작: UUID=TEST2, 데이터 크기=56962 바이트
2025/05/08 16:50:12 stream.go:39: 스냅샷 캡처 시작: 패킷 크기=56962 바이트
2025/05/08 16:50:12 stream.go:42: 패킷 데이터 시작: 0000de7e65b8000009ba7000017f9dda
2025/05/08 16:50:12 stream.go:148: 마지막 NALU 발견: 크기=56962 바이트, 첫 바이트=0x00
2025/05/08 16:50:12 stream.go:153: 총 1개의 NALU 발견
2025/05/08 16:50:12 stream.go:56: NALU[0] 타입: 0, 크기: 56962 바이트
2025/05/08 16:50:12 stream.go:66: IDR 프레임을 찾을 수 없음
2025/05/08 16:50:12 stream.go:199: 스냅샷 변환 실패: UUID=TEST2, 에러=no IDR frame found
2025/05/08 16:50:13 stream.go:214: 스냅샷 업데이트 시작: UUID=TEST2, 패킷 크기=55548 바이트
2025/05/08 16:50:13 stream.go:237: 스냅샷 업데이트 완료: UUID=TEST2
2025/05/08 16:50:14 stream.go:214: 스냅샷 업데이트 시작: UUID=TEST2, 패킷 크기=56154 바이트
2025/05/08 16:50:14 stream.go:237: 스냅샷 업데이트 완료: UUID=TEST2
2025/05/08 16:50:15 stream.go:214: 스냅샷 업데이트 시작: UUID=TEST2, 패킷 크기=51196 바이트
2025/05/08 16:50:15 stream.go:237: 스냅샷 업데이트 완료: UUID=TEST2
2025/05/08 16:50:16 stream.go:214: 스냅샷 업데이트 시작: UUID=TEST2, 패킷 크기=56458 바이트
2025/05/08 16:50:16 stream.go:237: 스냅샷 업데이트 완료: UUID=TEST2
2025/05/08 16:50:17 stream.go:214: 스냅샷 업데이트 시작: UUID=TEST2, 패킷 크기=51511 바이트
2025/05/08 16:50:17 stream.go:237: 스냅샷 업데이트 완료: UUID=TEST2
2025/05/08 16:50:18 stream.go:214: 스냅샷 업데이트 시작: UUID=TEST2, 패킷 크기=56793 바이트
2025/05/08 16:50:18 stream.go:237: 스냅샷 업데이트 완료: UUID=TEST2
2025/05/08 16:50:19 stream.go:214: 스냅샷 업데이트 시작: UUID=TEST2, 패킷 크기=57015 바이트
2025/05/08 16:50:19 stream.go:237: 스냅샷 업데이트 완료: UUID=TEST2
2025/05/08 16:50:20 stream.go:214: 스냅샷 업데이트 시작: UUID=TEST2, 패킷 크기=56645 바이트
2025/05/08 16:50:20 stream.go:237: 스냅샷 업데이트 완료: UUID=TEST2
2025/05/08 16:50:21 stream.go:214: 스냅샷 업데이트 시작: UUID=TEST2, 패킷 크기=56476 바이트
2025/05/08 16:50:21 stream.go:237: 스냅샷 업데이트 완료: UUID=TEST2
2025/05/08 16:50:22 stream.go:214: 스냅샷 업데이트 시작: UUID=TEST2, 패킷 크기=56033 바이트
2025/05/08 16:50:22 stream.go:237: 스냅샷 업데이트 완료: UUID=TEST2
2025/05/08 16:50:23 stream.go:214: 스냅샷 업데이트 시작: UUID=TEST2, 패킷 크기=56766 바이트
2025/05/08 16:50:23 stream.go:237: 스냅샷 업데이트 완료: UUID=TEST2
2025/05/08 16:50:24 stream.go:214: 스냅샷 업데이트 시작: UUID=TEST2, 패킷 크기=51212 바이트
2025/05/08 16:50:24 stream.go:237: 스냅샷 업데이트 완료: UUID=TEST2
2025/05/08 16:50:25 stream.go:214: 스냅샷 업데이트 시작: UUID=TEST2, 패킷 크기=51131 바이트
2025/05/08 16:50:25 stream.go:237: 스냅샷 업데이트 완료: UUID=TEST2
2025/05/08 16:50:26 stream.go:214: 스냅샷 업데이트 시작: UUID=TEST2, 패킷 크기=50987 바이트
2025/05/08 16:50:26 stream.go:237: 스냅샷 업데이트 완료: UUID=TEST2
2025/05/08 16:50:27 main.go:251: interrupt
2025/05/08 16:50:27 main.go:256: Exiting
2025/05/08 16:51:17 main.go:254: Server Start Awaiting Signal
2025/05/08 16:51:21 stream.go:337: Stream Try Connect TEST2
2025/05/08 16:51:21 adapter.go:61: Set ICEServers [stun:stun.l.google.com:19302]
2025/05/08 16:51:22 stream.go:279: 스냅샷 업데이트 시작: UUID=TEST2, 패킷 크기=56446 바이트
2025/05/08 16:51:22 stream.go:286: 새 스냅샷 생성: UUID=TEST2
2025/05/08 16:51:22 stream.go:302: 스냅샷 업데이트 완료: UUID=TEST2
2025/05/08 16:51:23 stream.go:239: 스냅샷 요청: UUID=TEST2
2025/05/08 16:51:23 stream.go:261: 스냅샷 변환 시작: UUID=TEST2, 데이터 크기=56446 바이트
2025/05/08 16:51:23 stream.go:95: 스냅샷 캡처 시작: 패킷 크기=56446 바이트
2025/05/08 16:51:23 stream.go:98: 패킷 데이터 시작: 0000dc7a65b800000b46d000017ff707
2025/05/08 16:51:23 stream.go:63: RTP 헤더: version=0, padding=0, extension=0, csrcCount=0, marker=0, payloadType=0, sequenceNumber=56442, timestamp=1706557440, ssrc=189190144
2025/05/08 16:51:23 stream.go:103: H.264 데이터 추출 실패: invalid H.264 payload type: 0
2025/05/08 16:51:23 stream.go:264: 스냅샷 변환 실패: UUID=TEST2, 에러=extract H.264 error: invalid H.264 payload type: 0
2025/05/08 16:51:23 stream.go:279: 스냅샷 업데이트 시작: UUID=TEST2, 패킷 크기=62138 바이트
2025/05/08 16:51:23 stream.go:302: 스냅샷 업데이트 완료: UUID=TEST2
2025/05/08 16:51:24 stream.go:279: 스냅샷 업데이트 시작: UUID=TEST2, 패킷 크기=62052 바이트
2025/05/08 16:51:24 stream.go:302: 스냅샷 업데이트 완료: UUID=TEST2
2025/05/08 16:51:25 stream.go:279: 스냅샷 업데이트 시작: UUID=TEST2, 패킷 크기=62226 바이트
2025/05/08 16:51:25 stream.go:302: 스냅샷 업데이트 완료: UUID=TEST2
2025/05/08 16:51:26 main.go:251: interrupt
2025/05/08 16:51:26 main.go:256: Exiting
2025/05/08 16:52:22 main.go:254: Server Start Awaiting Signal
2025/05/08 16:52:28 stream.go:374: Stream Try Connect TEST2
2025/05/08 16:52:28 adapter.go:61: Set ICEServers [stun:stun.l.google.com:19302]
2025/05/08 16:52:29 stream.go:316: 스냅샷 업데이트 시작: UUID=TEST2, 패킷 크기=51553 바이트
2025/05/08 16:52:29 stream.go:323: 새 스냅샷 생성: UUID=TEST2
2025/05/08 16:52:29 stream.go:339: 스냅샷 업데이트 완료: UUID=TEST2
2025/05/08 16:52:30 stream.go:316: 스냅샷 업데이트 시작: UUID=TEST2, 패킷 크기=45527 바이트
2025/05/08 16:52:30 stream.go:339: 스냅샷 업데이트 완료: UUID=TEST2
2025/05/08 16:52:31 stream.go:316: 스냅샷 업데이트 시작: UUID=TEST2, 패킷 크기=45649 바이트
2025/05/08 16:52:31 stream.go:339: 스냅샷 업데이트 완료: UUID=TEST2
2025/05/08 16:52:32 stream.go:316: 스냅샷 업데이트 시작: UUID=TEST2, 패킷 크기=46122 바이트
2025/05/08 16:52:32 stream.go:339: 스냅샷 업데이트 완료: UUID=TEST2
2025/05/08 16:52:33 stream.go:316: 스냅샷 업데이트 시작: UUID=TEST2, 패킷 크기=50237 바이트
2025/05/08 16:52:33 stream.go:339: 스냅샷 업데이트 완료: UUID=TEST2
2025/05/08 16:52:34 stream.go:316: 스냅샷 업데이트 시작: UUID=TEST2, 패킷 크기=56369 바이트
2025/05/08 16:52:34 stream.go:339: 스냅샷 업데이트 완료: UUID=TEST2
2025/05/08 16:52:35 stream.go:276: 스냅샷 요청: UUID=TEST2
2025/05/08 16:52:35 stream.go:298: 스냅샷 변환 시작: UUID=TEST2, 데이터 크기=56369 바이트
2025/05/08 16:52:35 stream.go:129: 스냅샷 캡처 시작: 패킷 크기=56369 바이트
2025/05/08 16:52:35 stream.go:45: 패킷 데이터 (처음 32바이트):
2025/05/08 16:52:35 stream.go:48:   0000: 00 00 dc 2d 65 b8 00 00 36 35 00 00 17 f7 07 08
2025/05/08 16:52:35 stream.go:48:   0010: 7c d5 35 0b 55 c0 55 aa 4b 8d d0 3f ee cd 6e 15
2025/05/08 16:52:35 stream.go:58: 처음 16바이트 중 0의 개수: 6
2025/05/08 16:52:35 stream.go:135: 패킷 데이터 시작: 0000dc2d65b800003635000017f70708
2025/05/08 16:52:35 stream.go:97: RTP 헤더: version=0, padding=0, extension=0, csrcCount=0, marker=0, payloadType=0, sequenceNumber=56365, timestamp=1706557440, ssrc=909443072
2025/05/08 16:52:35 stream.go:140: H.264 데이터 추출 실패: invalid H.264 payload type: 0
2025/05/08 16:52:35 stream.go:301: 스냅샷 변환 실패: UUID=TEST2, 에러=extract H.264 error: invalid H.264 payload type: 0
2025/05/08 16:52:35 stream.go:316: 스냅샷 업데이트 시작: UUID=TEST2, 패킷 크기=51983 바이트
2025/05/08 16:52:35 stream.go:339: 스냅샷 업데이트 완료: UUID=TEST2
2025/05/08 16:52:36 stream.go:316: 스냅샷 업데이트 시작: UUID=TEST2, 패킷 크기=55708 바이트
2025/05/08 16:52:36 stream.go:339: 스냅샷 업데이트 완료: UUID=TEST2
2025/05/08 16:52:37 stream.go:316: 스냅샷 업데이트 시작: UUID=TEST2, 패킷 크기=56640 바이트
2025/05/08 16:52:37 stream.go:339: 스냅샷 업데이트 완료: UUID=TEST2
2025/05/08 16:52:38 stream.go:316: 스냅샷 업데이트 시작: UUID=TEST2, 패킷 크기=50707 바이트
2025/05/08 16:52:38 stream.go:339: 스냅샷 업데이트 완료: UUID=TEST2
2025/05/08 16:52:39 main.go:251: interrupt
2025/05/08 16:52:39 main.go:256: Exiting
2025/05/08 16:53:36 main.go:254: Server Start Awaiting Signal
2025/05/08 16:53:37 stream.go:309: Stream Try Connect TEST2
2025/05/08 16:53:37 adapter.go:61: Set ICEServers [stun:stun.l.google.com:19302]
2025/05/08 16:53:37 stream.go:251: 스냅샷 업데이트 시작: UUID=TEST2, 패킷 크기=56050 바이트
2025/05/08 16:53:37 stream.go:258: 새 스냅샷 생성: UUID=TEST2
2025/05/08 16:53:37 stream.go:274: 스냅샷 업데이트 완료: UUID=TEST2
2025/05/08 16:53:38 stream.go:251: 스냅샷 업데이트 시작: UUID=TEST2, 패킷 크기=50966 바이트
2025/05/08 16:53:38 stream.go:274: 스냅샷 업데이트 완료: UUID=TEST2
2025/05/08 16:53:39 stream.go:251: 스냅샷 업데이트 시작: UUID=TEST2, 패킷 크기=55627 바이트
2025/05/08 16:53:39 stream.go:274: 스냅샷 업데이트 완료: UUID=TEST2
2025/05/08 16:53:40 stream.go:251: 스냅샷 업데이트 시작: UUID=TEST2, 패킷 크기=56180 바이트
2025/05/08 16:53:40 stream.go:274: 스냅샷 업데이트 완료: UUID=TEST2
2025/05/08 16:53:41 stream.go:211: 스냅샷 요청: UUID=TEST2
2025/05/08 16:53:41 stream.go:233: 스냅샷 변환 시작: UUID=TEST2, 데이터 크기=56180 바이트
2025/05/08 16:53:41 stream.go:73: 스냅샷 캡처 시작: 패킷 크기=56180 바이트
2025/05/08 16:53:41 stream.go:45: 패킷 데이터 (처음 32바이트):
2025/05/08 16:53:41 stream.go:48:   0000: 00 00 db 70 65 b8 00 00 1f 1d c0 00 05 ff f7 07
2025/05/08 16:53:41 stream.go:48:   0010: 09 87 3f c7 90 2f 31 0d bd a4 b1 4d 40 3c d0 87
2025/05/08 16:53:41 stream.go:58: 처음 16바이트 중 0의 개수: 5
2025/05/08 16:53:41 stream.go:79: 패킷 데이터 시작: 0000db7065b800001f1dc00005fff707
2025/05/08 16:53:41 stream.go:185: 마지막 NALU 발견: 크기=56180 바이트, 첫 바이트=0x00
2025/05/08 16:53:41 stream.go:190: 총 1개의 NALU 발견
2025/05/08 16:53:41 stream.go:93: NALU[0] 타입: 0, 크기: 56180 바이트
2025/05/08 16:53:41 stream.go:103: IDR 프레임을 찾을 수 없음
2025/05/08 16:53:41 stream.go:236: 스냅샷 변환 실패: UUID=TEST2, 에러=no IDR frame found
2025/05/08 16:53:41 stream.go:251: 스냅샷 업데이트 시작: UUID=TEST2, 패킷 크기=50542 바이트
2025/05/08 16:53:41 stream.go:274: 스냅샷 업데이트 완료: UUID=TEST2
2025/05/08 16:53:42 stream.go:251: 스냅샷 업데이트 시작: UUID=TEST2, 패킷 크기=50440 바이트
2025/05/08 16:53:42 stream.go:274: 스냅샷 업데이트 완료: UUID=TEST2
2025/05/08 16:53:43 main.go:251: interrupt
2025/05/08 16:53:43 main.go:256: Exiting
2025/05/08 16:55:34 main.go:254: Server Start Awaiting Signal
2025/05/08 16:55:38 stream.go:283: Stream Try Connect TEST2
2025/05/08 16:55:38 adapter.go:61: Set ICEServers [stun:stun.l.google.com:19302]
2025/05/08 16:55:38 stream.go:225: 스냅샷 업데이트 시작: UUID=TEST2, 패킷 크기=50854 바이트
2025/05/08 16:55:38 stream.go:232: 새 스냅샷 생성: UUID=TEST2
2025/05/08 16:55:38 stream.go:248: 스냅샷 업데이트 완료: UUID=TEST2
2025/05/08 16:55:39 stream.go:225: 스냅샷 업데이트 시작: UUID=TEST2, 패킷 크기=50828 바이트
2025/05/08 16:55:39 stream.go:248: 스냅샷 업데이트 완료: UUID=TEST2
2025/05/08 16:55:40 stream.go:185: 스냅샷 요청: UUID=TEST2
2025/05/08 16:55:40 stream.go:207: 스냅샷 변환 시작: UUID=TEST2, 데이터 크기=50828 바이트
2025/05/08 16:55:40 stream.go:73: 스냅샷 캡처 시작: 패킷 크기=50828 바이트, IsKeyFrame=false
2025/05/08 16:55:40 stream.go:77: 키프레임이 아님, 건너뜀
2025/05/08 16:55:40 stream.go:210: 스냅샷 변환 실패: UUID=TEST2, 에러=not a keyframe
2025/05/08 16:55:40 stream.go:225: 스냅샷 업데이트 시작: UUID=TEST2, 패킷 크기=51451 바이트
2025/05/08 16:55:40 stream.go:248: 스냅샷 업데이트 완료: UUID=TEST2
2025/05/08 16:55:41 stream.go:225: 스냅샷 업데이트 시작: UUID=TEST2, 패킷 크기=51601 바이트
2025/05/08 16:55:41 stream.go:248: 스냅샷 업데이트 완료: UUID=TEST2
2025/05/08 16:55:42 stream.go:225: 스냅샷 업데이트 시작: UUID=TEST2, 패킷 크기=52226 바이트
2025/05/08 16:55:42 stream.go:248: 스냅샷 업데이트 완료: UUID=TEST2
2025/05/08 16:55:43 stream.go:225: 스냅샷 업데이트 시작: UUID=TEST2, 패킷 크기=56954 바이트
2025/05/08 16:55:43 stream.go:248: 스냅샷 업데이트 완료: UUID=TEST2
2025/05/08 16:55:44 main.go:251: interrupt
2025/05/08 16:55:44 main.go:256: Exiting
2025/05/08 16:55:58 main.go:254: Server Start Awaiting Signal
2025/05/08 16:56:02 stream.go:283: Stream Try Connect TEST2
2025/05/08 16:56:02 adapter.go:61: Set ICEServers [stun:stun.l.google.com:19302]
2025/05/08 16:56:03 stream.go:225: 스냅샷 업데이트 시작: UUID=TEST2, 패킷 크기=56918 바이트
2025/05/08 16:56:03 stream.go:232: 새 스냅샷 생성: UUID=TEST2
2025/05/08 16:56:03 stream.go:248: 스냅샷 업데이트 완료: UUID=TEST2
2025/05/08 16:56:09 stream.go:286: Stream Exit Rtsp Disconnect
2025/05/08 16:56:10 stream.go:283: Stream Try Connect TEST2
2025/05/08 16:56:10 stream.go:225: 스냅샷 업데이트 시작: UUID=TEST2, 패킷 크기=45303 바이트
2025/05/08 16:56:10 stream.go:248: 스냅샷 업데이트 완료: UUID=TEST2
2025/05/08 16:56:11 stream.go:225: 스냅샷 업데이트 시작: UUID=TEST2, 패킷 크기=50641 바이트
2025/05/08 16:56:11 stream.go:248: 스냅샷 업데이트 완료: UUID=TEST2
2025/05/08 16:56:12 stream.go:225: 스냅샷 업데이트 시작: UUID=TEST2, 패킷 크기=50913 바이트
2025/05/08 16:56:12 stream.go:248: 스냅샷 업데이트 완료: UUID=TEST2
2025/05/08 16:56:13 stream.go:225: 스냅샷 업데이트 시작: UUID=TEST2, 패킷 크기=51037 바이트
2025/05/08 16:56:13 stream.go:248: 스냅샷 업데이트 완료: UUID=TEST2
2025/05/08 16:56:14 stream.go:225: 스냅샷 업데이트 시작: UUID=TEST2, 패킷 크기=56109 바이트
2025/05/08 16:56:14 stream.go:248: 스냅샷 업데이트 완료: UUID=TEST2
2025/05/08 16:56:15 stream.go:225: 스냅샷 업데이트 시작: UUID=TEST2, 패킷 크기=55983 바이트
2025/05/08 16:56:15 stream.go:248: 스냅샷 업데이트 완료: UUID=TEST2
2025/05/08 16:56:16 stream.go:225: 스냅샷 업데이트 시작: UUID=TEST2, 패킷 크기=55792 바이트
2025/05/08 16:56:16 stream.go:248: 스냅샷 업데이트 완료: UUID=TEST2
2025/05/08 16:56:17 stream.go:225: 스냅샷 업데이트 시작: UUID=TEST2, 패킷 크기=55748 바이트
2025/05/08 16:56:17 stream.go:248: 스냅샷 업데이트 완료: UUID=TEST2
2025/05/08 16:56:18 stream.go:225: 스냅샷 업데이트 시작: UUID=TEST2, 패킷 크기=50976 바이트
2025/05/08 16:56:18 stream.go:248: 스냅샷 업데이트 완료: UUID=TEST2
2025/05/08 16:56:19 stream.go:225: 스냅샷 업데이트 시작: UUID=TEST2, 패킷 크기=50331 바이트
2025/05/08 16:56:19 stream.go:248: 스냅샷 업데이트 완료: UUID=TEST2
2025/05/08 16:56:20 stream.go:225: 스냅샷 업데이트 시작: UUID=TEST2, 패킷 크기=56269 바이트
2025/05/08 16:56:20 stream.go:248: 스냅샷 업데이트 완료: UUID=TEST2
2025/05/08 16:56:21 stream.go:225: 스냅샷 업데이트 시작: UUID=TEST2, 패킷 크기=56398 바이트
2025/05/08 16:56:21 stream.go:248: 스냅샷 업데이트 완료: UUID=TEST2
2025/05/08 16:56:22 adapter.go:61: Set ICEServers [stun:stun.l.google.com:19302]
2025/05/08 16:56:22 stream.go:225: 스냅샷 업데이트 시작: UUID=TEST2, 패킷 크기=56064 바이트
2025/05/08 16:56:22 stream.go:248: 스냅샷 업데이트 완료: UUID=TEST2
2025/05/08 16:56:23 stream.go:225: 스냅샷 업데이트 시작: UUID=TEST2, 패킷 크기=55954 바이트
2025/05/08 16:56:23 stream.go:248: 스냅샷 업데이트 완료: UUID=TEST2
2025/05/08 16:56:24 stream.go:225: 스냅샷 업데이트 시작: UUID=TEST2, 패킷 크기=56292 바이트
2025/05/08 16:56:24 stream.go:248: 스냅샷 업데이트 완료: UUID=TEST2
2025/05/08 16:56:25 stream.go:225: 스냅샷 업데이트 시작: UUID=TEST2, 패킷 크기=56186 바이트
2025/05/08 16:56:25 stream.go:248: 스냅샷 업데이트 완료: UUID=TEST2
2025/05/08 16:56:26 stream.go:225: 스냅샷 업데이트 시작: UUID=TEST2, 패킷 크기=50370 바이트
2025/05/08 16:56:26 stream.go:248: 스냅샷 업데이트 완료: UUID=TEST2
2025/05/08 16:56:27 stream.go:225: 스냅샷 업데이트 시작: UUID=TEST2, 패킷 크기=51028 바이트
2025/05/08 16:56:27 stream.go:248: 스냅샷 업데이트 완료: UUID=TEST2
2025/05/08 16:56:28 stream.go:225: 스냅샷 업데이트 시작: UUID=TEST2, 패킷 크기=50894 바이트
2025/05/08 16:56:28 stream.go:248: 스냅샷 업데이트 완료: UUID=TEST2
2025/05/08 16:56:29 http.go:556: WritePacket WebRTC Client Offline
2025/05/08 16:56:29 stream.go:225: 스냅샷 업데이트 시작: UUID=TEST2, 패킷 크기=56334 바이트
2025/05/08 16:56:29 stream.go:248: 스냅샷 업데이트 완료: UUID=TEST2
2025/05/08 16:56:30 stream.go:185: 스냅샷 요청: UUID=TEST2
2025/05/08 16:56:30 stream.go:207: 스냅샷 변환 시작: UUID=TEST2, 데이터 크기=56334 바이트
2025/05/08 16:56:30 stream.go:73: 스냅샷 캡처 시작: 패킷 크기=56334 바이트, IsKeyFrame=false
2025/05/08 16:56:30 stream.go:77: 키프레임이 아님, 건너뜀
2025/05/08 16:56:30 stream.go:210: 스냅샷 변환 실패: UUID=TEST2, 에러=not a keyframe
2025/05/08 16:56:30 stream.go:225: 스냅샷 업데이트 시작: UUID=TEST2, 패킷 크기=56268 바이트
2025/05/08 16:56:30 stream.go:248: 스냅샷 업데이트 완료: UUID=TEST2
2025/05/08 16:56:31 stream.go:185: 스냅샷 요청: UUID=TEST2
2025/05/08 16:56:31 stream.go:207: 스냅샷 변환 시작: UUID=TEST2, 데이터 크기=56268 바이트
2025/05/08 16:56:31 stream.go:73: 스냅샷 캡처 시작: 패킷 크기=56268 바이트, IsKeyFrame=false
2025/05/08 16:56:31 stream.go:77: 키프레임이 아님, 건너뜀
2025/05/08 16:56:31 stream.go:210: 스냅샷 변환 실패: UUID=TEST2, 에러=not a keyframe
2025/05/08 16:56:31 stream.go:225: 스냅샷 업데이트 시작: UUID=TEST2, 패킷 크기=56630 바이트
2025/05/08 16:56:31 stream.go:248: 스냅샷 업데이트 완료: UUID=TEST2
2025/05/08 16:56:32 stream.go:225: 스냅샷 업데이트 시작: UUID=TEST2, 패킷 크기=56547 바이트
2025/05/08 16:56:32 stream.go:248: 스냅샷 업데이트 완료: UUID=TEST2
2025/05/08 16:56:32 stream.go:185: 스냅샷 요청: UUID=TEST2
2025/05/08 16:56:32 stream.go:207: 스냅샷 변환 시작: UUID=TEST2, 데이터 크기=56547 바이트
2025/05/08 16:56:32 stream.go:73: 스냅샷 캡처 시작: 패킷 크기=56547 바이트, IsKeyFrame=false
2025/05/08 16:56:32 stream.go:77: 키프레임이 아님, 건너뜀
2025/05/08 16:56:32 stream.go:210: 스냅샷 변환 실패: UUID=TEST2, 에러=not a keyframe
2025/05/08 16:56:33 stream.go:185: 스냅샷 요청: UUID=TEST2
2025/05/08 16:56:33 stream.go:207: 스냅샷 변환 시작: UUID=TEST2, 데이터 크기=56547 바이트
2025/05/08 16:56:33 stream.go:73: 스냅샷 캡처 시작: 패킷 크기=56547 바이트, IsKeyFrame=false
2025/05/08 16:56:33 stream.go:77: 키프레임이 아님, 건너뜀
2025/05/08 16:56:33 stream.go:210: 스냅샷 변환 실패: UUID=TEST2, 에러=not a keyframe
2025/05/08 16:56:33 stream.go:225: 스냅샷 업데이트 시작: UUID=TEST2, 패킷 크기=50943 바이트
2025/05/08 16:56:33 stream.go:248: 스냅샷 업데이트 완료: UUID=TEST2
2025/05/08 16:56:33 stream.go:185: 스냅샷 요청: UUID=TEST2
2025/05/08 16:56:33 stream.go:207: 스냅샷 변환 시작: UUID=TEST2, 데이터 크기=50943 바이트
2025/05/08 16:56:33 stream.go:73: 스냅샷 캡처 시작: 패킷 크기=50943 바이트, IsKeyFrame=false
2025/05/08 16:56:33 stream.go:77: 키프레임이 아님, 건너뜀
2025/05/08 16:56:33 stream.go:210: 스냅샷 변환 실패: UUID=TEST2, 에러=not a keyframe
2025/05/08 16:56:33 stream.go:185: 스냅샷 요청: UUID=TEST2
2025/05/08 16:56:33 stream.go:207: 스냅샷 변환 시작: UUID=TEST2, 데이터 크기=50943 바이트
2025/05/08 16:56:33 stream.go:73: 스냅샷 캡처 시작: 패킷 크기=50943 바이트, IsKeyFrame=false
2025/05/08 16:56:33 stream.go:77: 키프레임이 아님, 건너뜀
2025/05/08 16:56:33 stream.go:210: 스냅샷 변환 실패: UUID=TEST2, 에러=not a keyframe
2025/05/08 16:56:34 stream.go:185: 스냅샷 요청: UUID=TEST2
2025/05/08 16:56:34 stream.go:207: 스냅샷 변환 시작: UUID=TEST2, 데이터 크기=50943 바이트
2025/05/08 16:56:34 stream.go:73: 스냅샷 캡처 시작: 패킷 크기=50943 바이트, IsKeyFrame=false
2025/05/08 16:56:34 stream.go:77: 키프레임이 아님, 건너뜀
2025/05/08 16:56:34 stream.go:210: 스냅샷 변환 실패: UUID=TEST2, 에러=not a keyframe
2025/05/08 16:56:34 stream.go:185: 스냅샷 요청: UUID=TEST2
2025/05/08 16:56:34 stream.go:207: 스냅샷 변환 시작: UUID=TEST2, 데이터 크기=50943 바이트
2025/05/08 16:56:34 stream.go:73: 스냅샷 캡처 시작: 패킷 크기=50943 바이트, IsKeyFrame=false
2025/05/08 16:56:34 stream.go:77: 키프레임이 아님, 건너뜀
2025/05/08 16:56:34 stream.go:210: 스냅샷 변환 실패: UUID=TEST2, 에러=not a keyframe
2025/05/08 16:56:34 stream.go:225: 스냅샷 업데이트 시작: UUID=TEST2, 패킷 크기=50152 바이트
2025/05/08 16:56:34 stream.go:248: 스냅샷 업데이트 완료: UUID=TEST2
2025/05/08 16:56:35 stream.go:225: 스냅샷 업데이트 시작: UUID=TEST2, 패킷 크기=50674 바이트
2025/05/08 16:56:35 stream.go:248: 스냅샷 업데이트 완료: UUID=TEST2
2025/05/08 16:56:35 stream.go:185: 스냅샷 요청: UUID=TEST2
2025/05/08 16:56:35 stream.go:207: 스냅샷 변환 시작: UUID=TEST2, 데이터 크기=50674 바이트
2025/05/08 16:56:35 stream.go:73: 스냅샷 캡처 시작: 패킷 크기=50674 바이트, IsKeyFrame=false
2025/05/08 16:56:35 stream.go:77: 키프레임이 아님, 건너뜀
2025/05/08 16:56:35 stream.go:210: 스냅샷 변환 실패: UUID=TEST2, 에러=not a keyframe
2025/05/08 16:56:36 stream.go:225: 스냅샷 업데이트 시작: UUID=TEST2, 패킷 크기=50342 바이트
2025/05/08 16:56:36 stream.go:248: 스냅샷 업데이트 완료: UUID=TEST2
2025/05/08 16:56:37 stream.go:225: 스냅샷 업데이트 시작: UUID=TEST2, 패킷 크기=50387 바이트
2025/05/08 16:56:37 stream.go:248: 스냅샷 업데이트 완료: UUID=TEST2
2025/05/08 16:56:38 main.go:251: interrupt
2025/05/08 16:56:38 main.go:256: Exiting
